<?xml version="1.0" standalone="no"?>
<!DOCTYPE svg PUBLIC "-//W3C//DTD SVG 20010904//EN"
 "http://www.w3.org/TR/2001/REC-SVG-20010904/DTD/svg10.dtd">
<svg version="1.0" xmlns="http://www.w3.org/2000/svg"
 width="3000.000000pt" height="2000.000000pt" viewBox="0 0 3000.000000 2000.000000"
 preserveAspectRatio="xMidYMid meet">

<g transform="translate(0.000000,2000.000000) scale(0.100000,-0.100000)"
fill="#000000" stroke="none">
<path d="M18110 18670 c-13 -8 0 -84 93 -552 59 -299 108 -548 107 -554 0 -6
-90 1 -257 23 -142 18 -305 36 -362 40 l-104 8 -96 185 -96 185 -67 35 c-37
19 -69 32 -73 29 -3 -4 8 -102 25 -219 16 -118 30 -214 30 -216 0 -1 -28 -5
-61 -9 l-62 -7 52 -30 51 -30 -34 -61 c-19 -34 -68 -124 -110 -201 l-76 -139
87 7 87 7 152 145 c83 79 159 144 168 144 9 0 65 -15 124 -34 59 -19 206 -58
327 -86 121 -29 223 -54 227 -57 13 -7 -11 -50 -279 -506 -299 -508 -294 -494
-180 -481 89 10 101 16 191 102 45 42 99 94 122 114 l40 38 83 -17 c81 -17 83
-17 97 2 17 23 18 67 2 83 -7 7 -27 12 -45 12 -18 0 -33 4 -33 9 0 5 51 56
113 114 l113 105 83 -19 c99 -24 114 -18 109 45 -3 40 -4 41 -51 51 l-47 10
130 124 131 123 147 -22 c250 -39 412 -29 483 29 l24 19 -30 32 c-37 38 -113
82 -180 104 -27 8 -126 31 -219 51 -93 19 -174 39 -180 44 -15 13 -171 329
-166 335 3 2 27 -1 54 -7 43 -10 50 -9 62 8 20 27 18 72 -3 84 -10 5 -53 12
-96 16 l-78 7 -70 139 c-38 76 -69 143 -69 148 0 5 17 5 40 -1 52 -14 68 -6
76 37 9 51 -5 62 -96 70 l-79 7 -83 155 c-83 155 -83 156 -147 194 -69 42 -78
44 -101 29z"/>
<path d="M12910 16550 l0 -1800 266 0 265 0 -25 -33 c-20 -26 -23 -36 -14 -45
18 -18 22 -16 57 33 l32 45 144 0 143 0 107 -200 c59 -110 110 -200 114 -200
3 0 54 89 113 198 l106 197 431 3 431 2 0 975 c0 773 3 975 13 975 21 1 89 71
83 86 -8 21 -22 17 -61 -17 l-35 -31 -2 804 -3 803 -1082 3 -1083 2 0 -1800z
m2130 0 l0 -1760 -420 0 -420 0 -18 -29 c-9 -15 -53 -96 -97 -179 -44 -83 -82
-151 -85 -151 -3 0 -48 79 -101 177 l-95 177 -427 3 -427 2 0 1760 0 1760
1045 0 1045 0 0 -1760z"/>
<path d="M13040 16545 l0 -1675 955 0 955 0 0 1675 0 1675 -955 0 -955 0 0
-1675z m1870 0 l0 -1635 -915 0 -915 0 0 1635 0 1635 915 0 915 0 0 -1635z"/>
<path d="M13990 17995 c0 -78 -3 -95 -15 -95 -9 0 -15 -9 -15 -25 0 -19 -5
-25 -23 -25 l-23 0 0 -352 c-1 -585 -51 -1234 -99 -1260 -18 -11 -19 -31 -4
-56 8 -13 6 -44 -11 -127 -28 -142 -73 -314 -103 -390 -20 -51 -27 -60 -51
-63 -27 -3 -27 -4 -21 -56 7 -50 3 -60 -105 -307 -61 -140 -114 -260 -117
-266 -4 -10 27 -13 135 -13 l140 0 39 106 c72 200 187 276 347 230 89 -26 140
-83 196 -220 25 -60 50 -110 55 -113 6 -2 70 -2 143 -1 l131 3 -119 275 c-66
151 -120 280 -120 287 0 7 5 13 10 13 6 0 10 14 10 30 0 25 -4 30 -26 30 -19
0 -28 8 -40 36 -50 119 -145 535 -124 542 16 6 12 62 -4 62 -24 0 -57 209 -71
460 -4 63 -9 129 -11 145 -3 17 -7 249 -11 517 -6 486 -6 487 -27 490 -13 2
-22 12 -24 26 -2 12 -8 22 -13 22 -5 0 -9 43 -9 95 0 57 -4 95 -10 95 -6 0
-10 -38 -10 -95z m34 -1995 c9 -98 24 -221 31 -272 22 -139 27 -128 -61 -128
l-77 0 7 48 c29 199 47 349 53 433 10 157 26 129 47 -81z"/>
<path d="M16583 17489 c-23 -7 -31 -14 -26 -25 5 -13 15 -14 51 -9 61 9 72 14
65 31 -6 16 -42 17 -90 3z"/>
<path d="M8012 17453 c-25 -3 -32 -9 -30 -21 3 -14 14 -17 63 -14 67 3 68 3
59 26 -6 16 -21 17 -92 9z"/>
<path d="M8222 17443 c2 -14 15 -19 57 -21 36 -2 57 1 62 9 14 23 -1 29 -62
29 -52 0 -60 -2 -57 -17z"/>
<path d="M16358 17438 c-35 -9 -49 -30 -30 -42 17 -10 107 20 110 37 4 19 -20
21 -80 5z"/>
<path d="M8467 17423 c-18 -17 -3 -31 48 -45 30 -8 57 -13 60 -10 15 15 0 32
-42 46 -53 18 -57 19 -66 9z"/>
<path d="M7793 17392 c-46 -17 -48 -19 -34 -40 12 -20 111 16 111 40 0 22 -21
22 -77 0z"/>
<path d="M16133 17373 c-40 -14 -55 -35 -35 -47 5 -3 32 2 61 11 36 12 51 22
49 32 -4 21 -25 22 -75 4z"/>
<path d="M8686 17334 c-4 -9 -5 -18 -4 -19 2 -1 25 -14 52 -29 39 -23 50 -26
57 -15 13 21 12 22 -40 52 -58 32 -57 32 -65 11z"/>
<path d="M7585 17279 c-46 -35 -50 -42 -33 -57 18 -14 109 52 101 74 -8 21
-23 17 -68 -17z"/>
<path d="M15918 17288 c-44 -19 -60 -40 -40 -51 4 -3 31 6 59 19 39 17 51 27
47 38 -8 20 -9 20 -66 -6z"/>
<path d="M8891 17206 c-9 -10 -2 -21 34 -50 41 -34 65 -40 65 -15 0 10 -48 55
-75 71 -7 4 -18 2 -24 -6z"/>
<path d="M15698 17182 c-51 -29 -52 -30 -39 -51 7 -11 18 -8 57 15 27 15 50
28 52 29 5 4 -10 35 -17 35 -3 0 -27 -13 -53 -28z"/>
<path d="M7417 17110 c-27 -38 -30 -70 -8 -70 13 0 72 82 68 95 -8 23 -34 12
-60 -25z"/>
<path d="M15497 17058 c-49 -32 -57 -45 -33 -54 18 -7 96 44 96 62 0 25 -16
23 -63 -8z"/>
<path d="M9072 17048 c-9 -11 -2 -24 27 -58 23 -26 42 -41 49 -36 20 12 13 31
-26 69 -31 31 -41 35 -50 25z"/>
<path d="M19986 16993 c-7 -16 8 -33 30 -33 21 0 24 29 4 40 -25 13 -27 13
-34 -7z"/>
<path d="M15291 16912 c-39 -33 -42 -39 -28 -51 14 -11 23 -8 61 24 28 22 43
42 39 51 -8 22 -25 17 -72 -24z"/>
<path d="M7312 16895 c-16 -61 -15 -77 4 -73 10 2 22 22 30 48 18 60 17 70 -4
70 -13 0 -21 -13 -30 -45z"/>
<path d="M20130 16915 c-7 -9 -11 -17 -9 -19 26 -22 94 -56 105 -52 26 10 14
31 -35 58 -43 25 -50 26 -61 13z"/>
<path d="M9216 16862 c-5 -8 54 -101 64 -102 3 0 11 4 19 9 11 7 7 18 -18 55
-30 43 -53 57 -65 38z"/>
<path d="M20331 16786 c-10 -12 -3 -21 40 -50 39 -26 55 -32 61 -23 13 20 10
25 -36 57 -52 35 -50 34 -65 16z"/>
<path d="M7277 16704 c-4 -4 -7 -34 -7 -66 0 -44 4 -58 14 -58 21 0 24 8 27
70 2 43 0 56 -12 58 -8 1 -18 0 -22 -4z"/>
<path d="M9354 16662 c-17 -11 43 -113 62 -105 20 7 18 18 -12 69 -27 45 -31
49 -50 36z"/>
<path d="M20527 16646 c-4 -9 11 -29 39 -52 40 -32 47 -35 60 -22 13 13 10 19
-30 51 -48 40 -61 44 -69 23z"/>
<path d="M20713 16493 c-4 -11 7 -27 38 -54 39 -34 46 -36 59 -23 13 14 10 20
-30 54 -51 44 -58 47 -67 23z"/>
<path d="M7287 16463 c-3 -5 0 -34 6 -66 8 -44 14 -57 26 -55 16 4 19 52 6
106 -5 21 -29 30 -38 15z"/>
<path d="M9464 16447 c-7 -20 33 -107 50 -107 27 0 27 19 1 70 -25 50 -41 62
-51 37z"/>
<path d="M20890 16335 c-11 -14 -8 -21 25 -55 22 -22 45 -40 51 -40 30 0 23
25 -18 67 -40 40 -46 43 -58 28z"/>
<path d="M7350 16230 c-12 -7 -12 -16 3 -64 18 -57 23 -62 45 -48 9 7 9 19 -4
58 -20 59 -25 66 -44 54z"/>
<path d="M9562 16232 c-10 -7 -8 -20 9 -60 20 -47 40 -65 52 -44 6 9 -33 112
-42 112 -3 0 -12 -4 -19 -8z"/>
<path d="M21056 16161 c-4 -5 -3 -16 0 -25 6 -15 -199 -16 -2312 -18 l-2319
-3 -3 -597 c-2 -592 -2 -597 -23 -603 -23 -8 -22 -40 1 -40 13 0 16 -120 20
-960 l5 -960 1074 -5 1073 -5 161 -297 c89 -164 164 -294 168 -290 4 4 78 139
164 300 l158 292 1069 0 1068 0 0 1393 c0 1389 0 1392 20 1360 19 -32 50 -37
50 -9 0 12 -48 87 -61 96 -5 3 -10 78 -11 165 l-3 160 -116 3 c-109 2 -118 4
-139 27 -25 27 -35 30 -44 16z m262 -1628 l2 -1543 -1062 -2 -1062 -3 -145
-269 c-80 -148 -150 -268 -156 -266 -5 1 -75 123 -155 271 l-145 269 -1067 0
-1068 0 0 1538 c0 846 3 1542 7 1545 3 4 1096 6 2427 5 l2421 -3 3 -1542z"/>
<path d="M16627 15923 c-4 -3 -7 -631 -7 -1395 l0 -1388 2270 0 2270 0 -2
1393 -3 1392 -2261 3 c-1243 1 -2264 -1 -2267 -5z m4493 -1388 l0 -1355 -2230
0 -2230 0 0 1348 c0 742 3 1352 7 1355 3 4 1007 7 2230 7 l2223 0 0 -1355z"/>
<path d="M18869 15618 c-1 -13 -1 -29 0 -36 1 -8 -6 -20 -15 -27 -16 -11 -16
-15 -4 -29 12 -15 25 -76 17 -76 -18 0 -227 -95 -254 -116 -42 -32 -93 -109
-93 -141 0 -29 -18 -29 -71 -3 -30 16 -39 26 -38 43 1 12 1 31 0 42 l-2 20 -9
-20 c-4 -11 -6 -30 -3 -42 4 -18 -2 -25 -33 -39 -124 -52 -154 -85 -152 -163
1 -25 5 -51 10 -58 5 -6 8 -31 6 -55 l-3 -43 -62 -3 -62 -3 -3 118 c-3 110 -4
118 -23 118 -19 0 -20 -8 -23 -110 -1 -60 -7 -114 -11 -118 -5 -5 -52 -6 -106
-2 l-96 7 2 110 c1 70 -3 114 -10 121 -31 31 -34 -10 -35 -533 l-1 -521 -79 3
c-70 3 -79 5 -82 23 -2 11 -6 132 -9 269 -3 138 -8 252 -10 255 -10 9 -5 342
4 336 5 -3 12 -1 16 5 3 6 -1 13 -9 16 -12 5 -14 15 -10 44 5 32 3 40 -22 59
-16 13 -32 30 -36 39 -6 16 -7 16 -7 0 -1 -10 -14 -24 -31 -33 -27 -14 -30
-21 -30 -60 0 -25 -4 -45 -10 -45 -5 0 -10 -4 -10 -10 0 -5 7 -10 16 -10 15 0
16 -16 9 -167 -4 -96 -12 -174 -18 -181 -8 -10 -7 -16 3 -22 10 -6 11 -28 6
-100 -4 -51 -7 -153 -7 -227 0 -75 -2 -146 -5 -159 l-6 -24 -172 0 c-94 0
-181 3 -193 6 -25 7 -29 35 -38 279 -3 83 -8 212 -12 288 -4 100 -3 137 6 137
14 0 15 27 0 32 -8 3 -13 76 -17 229 l-5 226 23 6 c22 6 23 34 1 29 -8 -1 -11
16 -9 60 3 61 2 62 -32 85 -19 14 -38 32 -42 41 -6 16 -7 16 -7 0 -1 -10 -12
-20 -25 -24 -13 -3 -34 -16 -46 -29 -19 -20 -21 -31 -16 -70 6 -36 4 -46 -8
-51 -23 -9 -20 -31 5 -37 17 -5 20 -11 15 -34 -3 -15 -8 -116 -12 -223 -5
-162 -9 -197 -23 -207 -14 -12 -14 -14 -1 -25 13 -11 14 -41 9 -203 -4 -104
-7 -194 -8 -200 -1 -5 0 -26 1 -45 0 -19 0 -86 0 -148 l-2 -114 -37 4 c-34 3
-38 0 -41 -22 -5 -45 -33 -225 -38 -242 -5 -17 102 -18 2145 -18 l2151 0 0 38
c0 20 -3 81 -7 136 l-6 98 -39 -6 -38 -6 1 207 c0 115 -3 271 -7 347 -6 124
-5 140 10 151 15 11 15 15 2 28 -12 11 -16 61 -22 241 -6 206 -6 226 9 226 10
0 17 5 17 10 0 6 0 13 0 18 0 4 -5 7 -12 7 -8 0 -11 17 -9 53 3 60 -7 77 -56
97 -19 8 -32 19 -28 25 3 5 1 10 -4 10 -6 0 -11 -7 -11 -15 0 -9 -11 -20 -24
-25 -40 -15 -55 -46 -49 -101 4 -41 2 -49 -11 -49 -9 0 -16 -7 -16 -15 0 -9 9
-15 21 -15 l22 0 -7 -227 c-6 -196 -10 -230 -24 -241 -15 -12 -15 -15 -2 -24
13 -8 14 -33 8 -166 -11 -268 -18 -404 -24 -474 l-6 -68 -77 0 c-43 0 -132 -3
-199 -7 l-121 -6 0 248 c0 136 -3 250 -6 253 -3 3 0 11 7 19 8 10 8 17 0 25
-17 17 -17 352 0 342 8 -5 9 0 4 17 -4 13 -7 37 -7 53 2 31 -23 66 -46 66 -7
0 -13 7 -13 15 0 12 -3 12 -19 -2 -11 -10 -27 -24 -35 -31 -10 -8 -16 -28 -16
-52 0 -21 -5 -42 -12 -46 -8 -5 -6 -11 7 -20 17 -12 17 -26 11 -176 -5 -102
-11 -165 -19 -170 -8 -5 -8 -10 1 -20 8 -11 9 -62 2 -199 -6 -101 -12 -213
-13 -249 l-4 -65 -103 -3 -102 -3 7 516 c8 531 7 553 -31 538 -11 -4 -14 -30
-14 -119 l0 -114 -105 0 -105 0 0 116 c0 113 0 115 -22 112 -21 -3 -22 -7 -19
-115 l2 -111 -61 -4 -62 -3 7 111 c6 109 6 112 -19 141 -14 17 -54 43 -89 58
l-64 27 3 39 c1 21 -2 41 -7 44 -9 6 -13 -19 -10 -61 2 -16 -11 -26 -58 -46
-34 -15 -63 -23 -65 -20 -2 4 -7 25 -10 46 -10 50 -111 154 -171 175 -22 7
-72 27 -112 43 -67 27 -72 31 -71 59 1 16 5 32 10 35 12 8 10 44 -3 44 -5 0
-9 8 -8 18 3 35 -1 62 -11 62 -5 0 -11 -10 -11 -22z m-555 -654 c18 -17 19
-30 10 -98 -6 -44 -8 -46 -40 -46 l-34 0 0 70 c0 55 3 71 18 79 23 14 28 14
46 -5z m110 0 c16 -16 21 -79 10 -122 -5 -19 -12 -23 -38 -20 -31 3 -31 4 -34
64 -2 46 1 66 13 78 20 20 29 20 49 0z m120 -10 c3 -9 6 -42 6 -75 l0 -59 -40
0 -40 0 0 59 c0 77 6 91 40 91 16 0 30 -7 34 -16z m755 2 c7 -9 11 -39 9 -77
l-3 -62 -33 -1 -32 -1 0 71 c0 39 3 74 7 77 11 12 40 8 52 -7z m119 -63 l3
-73 -36 0 -35 0 0 68 c0 38 3 72 7 76 4 4 19 6 33 4 24 -3 25 -6 28 -75z m110
0 l3 -73 -36 0 -35 0 0 68 c0 38 3 72 7 76 4 4 19 6 33 4 24 -3 25 -6 28 -75z
m-1554 -147 l36 -33 0 -132 0 -131 -85 0 -85 0 0 123 c1 80 5 130 14 145 11
22 62 62 78 62 4 0 23 -15 42 -34z m400 5 c66 -29 76 -55 76 -197 l0 -117 -46
7 c-26 3 -84 6 -130 6 l-84 0 0 113 c0 69 5 122 13 137 11 23 87 70 113 70 7
0 33 -9 58 -19z m1118 0 c24 -10 52 -28 62 -40 23 -26 31 -95 21 -195 l-7 -76
-124 0 -124 0 0 119 c0 149 7 160 127 210 1 1 21 -7 45 -18z m385 -1 c43 -26
55 -72 51 -200 l-3 -105 -85 0 -85 0 -3 85 c-5 129 4 169 45 207 19 18 37 33
41 33 4 0 21 -9 39 -20z m-918 -113 c77 -29 122 -64 144 -110 14 -29 17 -71
17 -256 l0 -221 -240 0 -240 0 0 221 c0 245 5 268 64 316 40 31 156 83 176 78
8 -2 44 -15 79 -28z m-965 -299 c13 -18 16 -51 16 -150 l0 -128 -85 0 -85 0 0
118 c1 131 10 163 55 191 26 16 33 17 57 5 15 -8 34 -24 42 -36z m394 15 c53
-25 63 -57 60 -186 l-3 -112 -75 -3 c-41 -2 -99 0 -127 3 l-53 6 0 112 c0 69
5 122 13 137 16 32 94 71 127 64 14 -3 40 -13 58 -21z m1112 2 c27 -14 54 -34
60 -44 5 -11 10 -74 10 -140 l0 -121 -125 0 -125 0 0 123 c0 121 0 124 28 149
21 21 71 49 100 57 1 1 25 -10 52 -24z m384 -9 l36 -33 0 -132 0 -131 -85 0
-85 0 0 116 c0 129 11 168 57 196 38 22 37 22 77 -16z"/>
<path d="M7424 15997 c-7 -19 35 -107 51 -107 25 0 25 17 2 69 -21 49 -42 64
-53 38z"/>
<path d="M9638 16005 c-5 -5 27 -103 36 -113 2 -1 10 0 19 4 14 5 13 11 -2 57
-16 47 -37 68 -53 52z"/>
<path d="M7524 15779 c-6 -11 34 -109 45 -109 3 0 12 4 19 9 11 7 9 19 -12 60
-26 51 -39 61 -52 40z"/>
<path d="M9710 15772 c0 -5 7 -32 16 -61 11 -40 19 -51 30 -47 9 3 17 6 18 6
2 0 -4 25 -12 55 -11 41 -20 55 -34 55 -10 0 -18 -4 -18 -8z"/>
<path d="M4930 15610 c0 -18 7 -20 60 -20 53 0 60 2 60 20 0 18 -7 20 -60 20
-53 0 -60 -2 -60 -20z"/>
<path d="M4728 15598 c-39 -10 -43 -15 -30 -35 12 -19 124 6 120 27 -4 18 -40
22 -90 8z"/>
<path d="M5170 15590 c0 -14 10 -22 38 -29 68 -18 77 -17 77 3 0 14 -12 22
-45 32 -60 18 -70 17 -70 -6z"/>
<path d="M7640 15570 c-15 -9 -3 -47 30 -90 15 -20 21 -23 32 -12 10 10 8 21
-12 58 -29 53 -32 55 -50 44z"/>
<path d="M21466 15571 c-5 -8 45 -111 54 -111 3 0 11 4 18 9 11 7 9 19 -12 60
-24 47 -47 63 -60 42z"/>
<path d="M9778 15544 c-6 -5 17 -102 26 -111 10 -10 36 6 31 19 -2 7 -9 32
-15 56 -10 38 -26 52 -42 36z"/>
<path d="M4518 15514 c-48 -25 -57 -37 -37 -50 17 -10 110 37 107 55 -5 23
-19 22 -70 -5z"/>
<path d="M5396 15515 c-4 -11 9 -23 45 -40 49 -25 69 -26 69 -1 0 11 -79 56
-99 56 -5 0 -11 -7 -15 -15z"/>
<path d="M4330 15399 c-14 -12 -34 -28 -45 -35 -17 -12 -18 -16 -5 -28 13 -13
21 -10 63 21 38 28 45 38 36 49 -15 18 -19 17 -49 -7z"/>
<path d="M5604 15398 c-8 -12 62 -78 83 -78 30 0 24 26 -13 57 -42 35 -58 40
-70 21z"/>
<path d="M7755 15360 c-6 -10 45 -110 56 -110 4 0 11 6 17 13 8 9 3 25 -19 60
-29 47 -42 56 -54 37z"/>
<path d="M21581 15361 c-12 -8 -10 -18 9 -65 19 -49 24 -54 41 -45 18 9 18 12
3 47 -9 20 -18 45 -21 55 -6 19 -12 21 -32 8z"/>
<path d="M9837 15312 c-3 -4 0 -31 5 -60 8 -40 15 -52 29 -52 22 0 22 3 8 70
-10 45 -29 65 -42 42z"/>
<path d="M4132 15227 c-39 -39 -41 -45 -27 -57 14 -12 22 -8 58 28 37 37 40
43 26 57 -13 13 -19 10 -57 -28z"/>
<path d="M5791 15246 c-10 -11 -7 -17 11 -30 21 -15 12 -16 -135 -16 l-157 0
0 -1415 0 -1415 453 -1 c248 0 607 -2 796 -5 l345 -5 141 -260 c78 -144 145
-262 150 -262 8 -2 43 61 234 416 l64 117 788 0 789 0 0 695 c0 382 3 695 8
695 4 0 16 -7 26 -15 14 -11 23 -12 33 -4 20 17 17 22 -27 49 l-40 25 0 692 0
693 -1695 0 -1694 0 -34 30 c-40 35 -41 35 -56 16z m3439 -1466 l0 -1380 -783
0 -783 0 -68 -127 c-144 -266 -199 -364 -203 -360 -2 2 -62 112 -133 243
l-129 239 -790 3 -791 2 0 1380 0 1380 1840 0 1840 0 0 -1380z"/>
<path d="M5685 15018 c-3 -7 -4 -569 -3 -1248 l3 -1235 1702 -3 1703 -2 2
1246 c2 685 1 1248 -1 1250 -2 2 -769 4 -1703 4 -1350 0 -1700 -3 -1703 -12z
m3365 -1097 c0 -588 3 -1076 6 -1085 3 -9 2 -16 -2 -16 -5 0 -23 31 -40 70
l-32 69 -72 3 -73 3 -35 93 -35 92 -62 0 -62 0 -22 63 c-42 119 -46 125 -87
129 l-37 3 -29 93 -29 92 -34 0 c-37 0 -31 -11 -81 163 -4 14 -17 17 -64 17
l-59 0 -22 95 -21 95 -39 0 c-42 0 -41 -2 -59 95 -19 98 -15 94 -73 97 l-52 3
-14 93 -14 92 -37 0 -37 0 -7 63 c-4 34 -9 77 -13 95 l-5 32 -84 0 -84 0 0
190 0 190 -229 0 c-125 0 -249 -3 -274 -6 l-47 -7 -2 -186 -3 -186 -81 -3 -82
-3 -6 -67 c-12 -118 -13 -122 -51 -122 -36 0 -33 8 -51 -137 l-7 -53 -52 0
-53 0 -10 -47 c-6 -27 -13 -69 -17 -95 -7 -48 -8 -48 -45 -48 -43 0 -40 6 -65
-112 l-17 -78 -59 0 -58 0 -10 -37 c-6 -21 -15 -60 -22 -88 -15 -63 -25 -75
-60 -75 -30 0 -27 7 -75 -162 -4 -13 -16 -18 -39 -18 -40 0 -42 -2 -80 -110
l-30 -85 -61 -3 -62 -3 -34 -92 -35 -92 -72 -5 -73 -5 -22 -52 c-12 -29 -25
-55 -29 -59 -4 -4 -7 481 -7 1078 0 596 3 1088 7 1091 3 4 753 7 1665 7 l1658
0 0 -1069z m-1642 617 l-3 -73 -40 0 -40 0 -3 73 -3 72 46 0 46 0 -3 -72z
m1644 -1854 c2 -65 -1 -108 -7 -110 -5 -2 -755 -3 -1665 -2 l-1655 3 -3 108
-3 107 1665 0 1665 0 3 -106z"/>
<path d="M21662 15116 c4 -20 0 -26 -16 -28 -32 -5 -34 -38 -2 -38 13 0 32 -7
40 -16 20 -19 52 -10 59 17 4 15 0 23 -13 26 -11 3 -22 18 -25 34 -5 20 -13
29 -27 29 -16 0 -19 -5 -16 -24z"/>
<path d="M21387 15105 c-8 -19 1 -23 67 -31 52 -6 56 -5 56 13 0 16 -9 21 -46
27 -65 9 -71 8 -77 -9z"/>
<path d="M3971 15044 c-29 -41 -31 -48 -19 -61 13 -13 19 -8 51 34 26 35 33
51 25 60 -15 19 -20 16 -57 -33z"/>
<path d="M9885 15038 c10 -66 16 -79 31 -76 17 4 18 7 10 71 -6 39 -10 47 -27
47 -19 0 -20 -4 -14 -42z"/>
<path d="M21865 15052 c-15 -15 -3 -42 18 -42 12 0 39 -3 60 -6 33 -6 37 -4
37 15 0 11 -6 21 -12 21 -7 1 -32 5 -55 9 -23 5 -45 6 -48 3z"/>
<path d="M22097 14998 c-6 -23 -3 -25 66 -33 53 -7 57 -6 57 12 0 17 -10 22
-59 30 -54 8 -60 8 -64 -9z"/>
<path d="M22337 14963 c-18 -17 -2 -31 49 -42 47 -11 58 -11 65 0 15 23 11 27
-41 38 -60 13 -65 13 -73 4z"/>
<path d="M22570 14902 c0 -14 13 -21 51 -30 66 -16 69 -15 69 7 0 14 -12 22
-44 30 -62 15 -76 14 -76 -7z"/>
<path d="M21727 14904 c-3 -3 -2 -18 3 -32 5 -15 11 -39 14 -54 5 -20 13 -28
27 -28 17 0 20 5 16 23 -3 12 -9 39 -12 60 -5 26 -12 37 -24 37 -10 0 -20 -3
-24 -6z"/>
<path d="M3851 14828 c-17 -40 -19 -53 -9 -60 7 -4 16 -8 19 -8 10 0 49 101
43 111 -13 21 -33 5 -53 -43z"/>
<path d="M16202 14851 c-24 -9 -43 -20 -43 -24 1 -4 1 -11 1 -17 0 -15 23 -12
74 10 33 14 44 23 40 35 -8 19 -18 18 -72 -4z"/>
<path d="M22806 14854 c-8 -22 -5 -24 41 -35 54 -12 70 -11 77 6 4 10 -6 17
-37 25 -23 6 -49 13 -58 16 -10 3 -19 -3 -23 -12z"/>
<path d="M9925 14840 c-8 -13 6 -109 17 -116 21 -13 30 15 24 70 -5 37 -12 56
-21 56 -8 0 -17 -4 -20 -10z"/>
<path d="M23040 14791 c0 -14 13 -22 53 -33 50 -14 66 -11 67 14 0 7 -93 38
-112 38 -4 0 -8 -8 -8 -19z"/>
<path d="M15983 14772 c-51 -21 -57 -27 -50 -47 6 -13 12 -13 58 4 61 24 61
24 53 45 -7 19 -8 19 -61 -2z"/>
<path d="M23270 14725 c0 -18 41 -36 85 -39 42 -2 39 24 -5 40 -49 18 -80 17
-80 -1z"/>
<path d="M15753 14675 c-39 -18 -51 -28 -47 -39 3 -9 10 -16 16 -16 11 0 108
41 108 45 0 11 -13 35 -19 34 -3 0 -30 -11 -58 -24z"/>
<path d="M21784 14674 c-11 -5 3 -124 15 -124 26 1 33 20 24 70 -8 52 -16 63
-39 54z"/>
<path d="M23502 14655 c3 -20 80 -50 103 -41 38 14 6 37 -70 52 -32 6 -37 4
-33 -11z"/>
<path d="M3763 14608 c-18 -45 -18 -54 -6 -61 8 -5 17 -6 21 -2 12 12 41 98
36 107 -13 21 -33 4 -51 -44z"/>
<path d="M9955 14600 c-3 -5 -3 -32 1 -60 5 -40 10 -50 25 -50 21 0 23 18 13
83 -6 35 -25 49 -39 27z"/>
<path d="M15537 14574 c-34 -18 -47 -30 -43 -40 3 -9 6 -18 6 -20 0 -4 99 43
108 51 5 4 -10 35 -17 35 -3 -1 -28 -12 -54 -26z"/>
<path d="M23726 14584 c-8 -21 -12 -18 53 -39 44 -14 55 -15 62 -4 11 18 4 23
-55 43 -60 19 -53 19 -60 0z"/>
<path d="M13275 14544 c-35 -42 -39 -64 -11 -64 14 0 76 72 76 88 0 6 -6 12
-14 15 -9 4 -28 -11 -51 -39z"/>
<path d="M23957 14514 c-17 -17 -3 -33 45 -53 40 -17 53 -19 60 -9 15 24 17
23 -88 64 -5 3 -13 1 -17 -2z"/>
<path d="M15323 14463 c-41 -23 -54 -45 -34 -57 7 -4 78 28 109 49 1 1 0 10
-4 19 -8 21 -20 19 -71 -11z"/>
<path d="M21810 14380 c0 -58 1 -60 26 -60 20 0 25 4 20 16 -3 9 -6 36 -6 60
0 37 -3 44 -20 44 -18 0 -20 -7 -20 -60z"/>
<path d="M3685 14379 c-15 -43 -15 -53 -4 -60 18 -11 23 -4 43 55 20 61 20 56
-3 56 -14 0 -24 -13 -36 -51z"/>
<path d="M24176 14414 c-8 -20 -12 -17 48 -43 49 -21 66 -20 66 4 0 11 -17 20
-96 52 -6 2 -14 -4 -18 -13z"/>
<path d="M13121 14364 c-36 -42 -40 -49 -25 -57 13 -7 26 0 57 32 38 37 40 42
26 57 -15 14 -20 11 -58 -32z"/>
<path d="M9974 14333 c3 -21 6 -48 6 -60 0 -17 6 -23 21 -23 19 0 21 4 15 31
-3 17 -6 44 -6 60 0 23 -5 29 -21 29 -19 0 -21 -4 -15 -37z"/>
<path d="M15113 14339 c-24 -17 -43 -34 -43 -40 0 -22 31 -19 72 7 23 16 44
29 46 30 1 0 0 9 -4 18 -9 22 -23 20 -71 -15z"/>
<path d="M24397 14323 c-15 -14 -5 -25 45 -48 46 -21 54 -22 61 -9 10 18 13
16 -40 43 -45 22 -56 25 -66 14z"/>
<path d="M14930 14219 c-14 -12 -34 -28 -45 -35 -17 -12 -18 -16 -4 -29 13
-14 19 -12 49 11 19 14 41 29 48 33 15 8 6 41 -12 41 -6 -1 -22 -10 -36 -21z"/>
<path d="M12958 14186 c-28 -32 -34 -46 -25 -55 17 -17 101 67 85 86 -15 19
-19 17 -60 -31z"/>
<path d="M24617 14223 c-16 -15 -4 -30 38 -51 54 -26 61 -27 69 -7 4 11 -9 22
-44 40 -55 28 -54 28 -63 18z"/>
<path d="M3620 14158 c-6 -24 -13 -48 -15 -55 -3 -9 15 -23 30 -23 4 0 35 103
35 114 0 3 -9 6 -20 6 -14 0 -22 -11 -30 -42z"/>
<path d="M21820 14140 c0 -53 2 -60 20 -60 18 0 20 7 20 60 0 53 -2 60 -20 60
-18 0 -20 -7 -20 -60z"/>
<path d="M9987 14123 c-2 -5 -4 -32 -5 -60 -1 -47 1 -53 18 -53 18 0 20 7 20
60 0 46 -3 60 -14 60 -8 0 -17 -3 -19 -7z"/>
<path d="M24823 14105 c-6 -19 -10 -15 49 -47 41 -23 49 -24 59 -11 14 16 11
19 -53 53 -45 24 -47 24 -55 5z"/>
<path d="M14729 14051 c-39 -35 -42 -41 -29 -54 13 -14 20 -11 59 24 28 25 41
44 37 54 -8 23 -19 19 -67 -24z"/>
<path d="M12790 14020 c-41 -35 -43 -40 -30 -54 14 -15 20 -12 58 27 34 35 40
46 30 55 -10 8 -24 1 -58 -28z"/>
<path d="M25037 13993 c-4 -3 -7 -11 -7 -17 0 -14 95 -68 104 -59 15 15 3 34
-37 58 -48 27 -50 28 -60 18z"/>
<path d="M3562 13919 c-16 -66 -15 -69 7 -69 15 0 22 11 30 50 14 67 14 70 -7
70 -14 0 -21 -13 -30 -51z"/>
<path d="M21816 13929 c-12 -61 -8 -89 14 -89 14 0 20 7 20 23 0 12 3 39 6 60
6 32 4 37 -13 37 -15 0 -22 -9 -27 -31z"/>
<path d="M14565 13875 c-35 -42 -39 -65 -12 -65 19 0 79 79 73 95 -9 24 -23
18 -61 -30z"/>
<path d="M12610 13860 c-40 -34 -43 -40 -30 -54 13 -13 20 -10 60 25 39 34 43
40 30 53 -13 13 -20 10 -60 -24z"/>
<path d="M9987 13883 c-2 -5 -5 -32 -6 -60 -1 -47 1 -53 19 -53 18 0 20 6 20
60 0 46 -3 60 -14 60 -8 0 -17 -3 -19 -7z"/>
<path d="M25239 13864 c-14 -17 -11 -20 45 -57 30 -20 43 -24 53 -16 17 15 11
22 -42 58 -38 25 -45 27 -56 15z"/>
<path d="M12423 13717 c-42 -32 -52 -50 -33 -62 8 -5 100 49 100 60 0 11 -13
35 -19 34 -3 0 -25 -15 -48 -32z"/>
<path d="M25433 13725 c-3 -9 -4 -17 -2 -19 2 -1 22 -16 45 -34 31 -24 44 -28
52 -20 19 19 15 25 -32 58 -51 35 -55 35 -63 15z"/>
<path d="M3520 13706 c0 -13 -3 -37 -6 -55 -5 -23 -2 -32 10 -37 22 -9 23 -8
31 59 7 54 6 57 -14 57 -15 0 -21 -6 -21 -24z"/>
<path d="M14423 13681 c-23 -36 -29 -51 -20 -60 17 -17 22 -14 54 38 23 36 28
52 20 60 -17 17 -19 15 -54 -38z"/>
<path d="M21796 13708 c-3 -7 -7 -34 -10 -60 -5 -42 -3 -48 13 -48 14 0 21 9
25 30 3 17 9 44 12 60 5 26 3 30 -16 30 -11 0 -22 -6 -24 -12z"/>
<path d="M9447 13693 c-16 -15 -4 -31 42 -56 26 -15 51 -24 55 -20 15 15 3 33
-40 57 -53 30 -49 28 -57 19z"/>
<path d="M9976 13634 c-3 -9 -6 -36 -6 -60 0 -37 3 -44 20 -44 18 0 20 7 20
60 0 45 -4 60 -14 60 -8 0 -17 -7 -20 -16z"/>
<path d="M12223 13583 c-41 -23 -54 -45 -34 -58 15 -8 102 48 99 64 -5 22 -20
21 -65 -6z"/>
<path d="M25629 13584 c-11 -14 -9 -19 11 -35 56 -45 71 -52 82 -41 13 13 6
24 -41 61 -35 28 -40 29 -52 15z"/>
<path d="M9656 13574 c-8 -20 -11 -16 42 -43 43 -22 72 -22 72 -1 0 8 -89 60
-104 60 -2 0 -7 -7 -10 -16z"/>
<path d="M14312 13475 c-26 -54 -27 -71 -7 -79 21 -8 72 103 53 116 -20 12
-23 11 -46 -37z"/>
<path d="M3496 13492 c-2 -4 -7 -30 -11 -58 -5 -43 -4 -52 11 -58 22 -8 20
-11 28 55 6 46 4 58 -8 62 -9 3 -17 3 -20 -1z"/>
<path d="M9877 13484 c-17 -17 -4 -34 38 -50 33 -12 44 -21 41 -33 -2 -9 -7
-37 -11 -63 -6 -43 -4 -48 14 -48 16 0 21 9 25 43 3 23 5 59 4 79 -2 39 1 36
-94 74 -5 3 -13 1 -17 -2z"/>
<path d="M12008 13468 c-50 -21 -53 -25 -40 -45 12 -19 112 25 112 49 0 22
-13 22 -72 -4z"/>
<path d="M21751 13429 c-6 -28 -9 -55 -5 -60 13 -21 32 -7 39 29 3 20 9 47 12
60 4 17 1 22 -15 22 -16 0 -22 -10 -31 -51z"/>
<path d="M25812 13434 c-12 -22 73 -103 90 -86 16 16 5 35 -40 71 -36 28 -42
30 -50 15z"/>
<path d="M10097 13385 c-5 -10 9 -19 50 -32 56 -17 58 -17 66 13 2 7 -77 34
-99 34 -7 0 -14 -7 -17 -15z"/>
<path d="M11795 13378 c-59 -23 -57 -21 -50 -40 6 -14 12 -14 57 0 49 16 69
36 52 51 -5 4 -31 -1 -59 -11z"/>
<path d="M10326 13324 c-3 -8 -6 -17 -6 -19 0 -2 25 -9 56 -16 46 -10 57 -10
64 1 12 20 5 27 -37 34 -21 4 -45 9 -54 12 -9 3 -19 -2 -23 -12z"/>
<path d="M11553 13307 c-45 -10 -48 -14 -34 -35 6 -11 17 -11 52 -2 67 17 69
18 63 35 -7 17 -20 17 -81 2z"/>
<path d="M14245 13290 c-12 -19 -34 -104 -29 -112 14 -22 34 -4 49 44 8 28 15
55 15 59 0 11 -29 19 -35 9z"/>
<path d="M10560 13271 c0 -17 8 -21 48 -27 63 -8 66 -7 70 10 3 15 -10 21 -75
31 -39 6 -43 5 -43 -14z"/>
<path d="M11333 13267 c-44 -7 -53 -12 -53 -29 0 -18 4 -20 31 -14 17 3 42 6
56 6 24 0 42 26 27 39 -5 4 -33 3 -61 -2z"/>
<path d="M25987 13266 c-6 -14 61 -86 80 -86 28 0 23 25 -13 61 -40 41 -58 48
-67 25z"/>
<path d="M3477 13254 c-4 -4 -7 -31 -7 -61 0 -44 3 -53 18 -53 15 0 18 9 17
57 0 52 -11 74 -28 57z"/>
<path d="M10800 13243 c0 -21 32 -33 91 -33 22 0 29 5 29 20 0 15 -7 20 -29
20 -16 0 -43 3 -60 6 -26 6 -31 4 -31 -13z"/>
<path d="M11040 13230 c0 -18 7 -20 60 -20 53 0 60 2 60 20 0 18 -7 20 -60 20
-53 0 -60 -2 -60 -20z"/>
<path d="M21700 13208 c-6 -24 -13 -51 -16 -60 -4 -13 0 -18 15 -18 15 0 23
10 31 43 6 23 13 47 15 54 3 9 -15 23 -30 23 -3 0 -9 -19 -15 -42z"/>
<path d="M11988 13173 c-14 -16 -55 -74 -91 -129 -37 -56 -105 -144 -153 -195
-48 -52 -118 -131 -155 -175 -38 -45 -108 -115 -157 -156 -74 -63 -98 -77
-163 -97 l-77 -24 -33 24 c-19 13 -85 61 -147 107 -177 130 -258 180 -305 187
-85 13 -297 -50 -420 -125 -123 -74 -273 -226 -323 -327 l-26 -52 26 -238 26
-237 -68 -116 c-38 -63 -90 -150 -116 -192 -58 -92 -63 -134 -21 -178 15 -16
38 -31 51 -34 l24 -6 -29 -58 c-49 -99 -65 -160 -64 -252 0 -97 10 -130 90
-303 30 -65 57 -136 60 -158 6 -39 5 -40 -99 -142 -117 -113 -149 -162 -174
-257 -13 -52 -14 -76 -6 -128 14 -80 56 -171 114 -242 l45 -55 -6 -625 c-4
-344 -3 -630 1 -636 5 -7 24 -15 43 -18 19 -4 37 -11 40 -16 3 -5 -30 -51 -73
-102 -122 -143 -209 -265 -255 -357 -40 -81 -42 -89 -41 -170 1 -106 23 -177
67 -218 42 -40 62 -49 120 -58 l49 -8 -6 -41 c-3 -22 -11 -108 -18 -191 -23
-277 -11 -1672 18 -2097 l6 -87 47 -27 c65 -36 241 -111 311 -132 l60 -17 0
-40 c-1 -90 -20 -186 -49 -242 -16 -32 -95 -173 -176 -313 -168 -293 -308
-567 -353 -690 -87 -237 -255 -860 -416 -1540 -57 -241 -77 -337 -127 -590 -6
-30 -30 -107 -54 -170 -23 -63 -46 -134 -50 -158 l-7 -42 -1406 0 -1406 0 26
28 c55 58 59 76 84 411 38 511 50 740 53 1014 2 222 0 262 -14 283 -15 23 -19
24 -146 24 -109 0 -130 2 -126 14 3 8 15 90 27 183 33 270 68 412 133 540 22
42 24 52 12 57 -20 7 -58 -53 -112 -179 -70 -167 -123 -401 -123 -551 l0 -64
-30 0 c-27 0 -30 3 -30 34 0 60 50 538 66 636 48 285 150 482 382 738 111 123
56 101 -67 -26 -114 -119 -208 -243 -261 -343 -102 -195 -169 -516 -185 -881
l-7 -158 -44 0 c-41 0 -44 2 -40 23 3 12 8 67 11 122 3 55 8 118 10 140 3 22
12 189 20 370 17 352 33 542 66 750 77 485 180 779 349 989 39 48 163 196 277
329 363 423 474 577 418 577 -8 0 -37 -33 -64 -73 -70 -105 -147 -199 -381
-472 -265 -307 -328 -387 -379 -471 -82 -139 -163 -370 -209 -599 -76 -374
-102 -529 -127 -755 -34 -307 -44 -490 -42 -708 l2 -222 -56 0 -56 0 -6 68
c-16 163 -3 1071 19 1377 34 482 167 1206 275 1498 39 104 165 543 230 797 68
267 126 560 140 710 14 147 7 407 -16 560 -14 99 -50 294 -61 333 -5 17 -29
23 -37 10 -3 -5 6 -62 18 -127 48 -243 58 -344 59 -556 0 -115 -5 -244 -12
-295 -34 -242 -119 -601 -262 -1098 -49 -171 -88 -319 -87 -327 1 -8 -15 -67
-35 -130 -192 -594 -318 -1427 -318 -2095 0 -192 27 -596 46 -698 5 -26 4 -27
-40 -27 l-46 0 -1 63 c0 34 -2 69 -3 77 -2 8 -6 67 -10 130 -19 311 -116 956
-251 1670 -31 162 -59 315 -62 340 -11 104 -159 796 -229 1074 -30 118 -223
823 -280 1019 -13 43 -21 57 -35 57 -11 0 -19 -5 -19 -11 0 -6 29 -113 64
-237 98 -345 200 -719 245 -897 42 -171 156 -695 191 -885 12 -63 26 -123 31
-133 12 -21 22 -82 78 -462 62 -420 87 -609 136 -1035 48 -416 82 -697 90
-742 4 -27 3 -28 -38 -28 l-42 0 -18 198 c-36 400 -129 807 -269 1182 -74 197
-125 299 -225 450 -127 191 -219 307 -411 524 -204 230 -268 314 -328 431 -44
87 -65 108 -72 73 -4 -22 66 -158 126 -243 27 -38 115 -144 196 -235 325 -364
546 -675 623 -875 50 -132 117 -361 157 -541 34 -153 166 -904 166 -945 0 -17
-6 -20 -36 -17 l-36 3 -23 90 c-48 184 -181 528 -286 737 -32 65 -64 118 -69
118 -16 0 -13 -7 41 -135 70 -166 161 -439 209 -630 22 -88 40 -166 40 -172 0
-8 -12 -13 -28 -13 -24 0 -31 6 -44 38 -35 89 -218 345 -235 329 -2 -3 -17 7
-32 22 -32 29 -366 232 -503 306 -83 44 -108 49 -108 22 0 -7 57 -43 127 -82
224 -124 477 -283 513 -324 46 -51 93 -130 135 -227 l35 -79 -63 -3 c-98 -4
-97 -2 -97 -262 0 -212 14 -501 45 -935 9 -115 18 -248 21 -295 9 -149 20
-187 72 -242 l26 -28 -1232 0 c-1225 0 -1232 0 -1232 -20 0 -20 7 -20 3240
-20 3208 0 3239 0 3250 -20 15 -28 95 -80 146 -96 24 -7 81 -18 127 -24 45 -6
174 -29 287 -51 341 -68 517 -65 554 9 40 80 16 160 -49 162 -11 0 -27 5 -35
10 -10 6 117 10 367 10 l382 0 -6 -115 -6 -115 35 -33 c67 -63 198 -79 423
-54 77 9 183 18 235 19 l95 3 3 -40 c4 -51 23 -65 87 -65 62 0 75 11 75 67 0
41 1 43 30 43 28 0 30 -2 30 -38 0 -53 23 -72 87 -72 65 0 83 19 83 88 0 85
-20 82 540 82 l480 0 0 -63 c0 -88 15 -107 85 -107 73 0 85 14 85 99 0 75 3
81 31 74 16 -5 19 -14 19 -73 0 -84 14 -100 88 -100 67 0 82 20 82 111 l0 67
53 17 c91 29 168 88 226 173 l22 32 210 0 c115 0 209 -4 209 -9 0 -5 -7 -28
-15 -51 -17 -48 -20 -123 -5 -149 20 -39 240 -101 356 -101 160 0 224 64 224
225 l0 85 611 0 612 0 -7 -30 c-3 -17 -8 -72 -12 -123 -6 -83 -4 -94 14 -118
32 -39 91 -52 277 -58 160 -6 170 -7 173 -26 7 -36 23 -45 78 -45 56 0 84 16
84 49 0 19 15 21 338 37 l132 7 0 -24 c0 -14 7 -35 16 -47 12 -18 25 -22 68
-22 72 0 86 17 86 103 l0 67 320 0 320 0 0 -68 c0 -86 14 -102 87 -102 69 0
83 17 83 103 l0 67 225 0 c124 0 228 1 233 3 4 1 8 -29 10 -68 4 -89 17 -105
87 -105 72 0 85 16 85 108 l0 72 28 0 c44 0 121 29 181 68 49 33 131 122 131
143 0 5 1132 9 2820 9 2813 0 2820 0 2820 20 0 20 -7 20 -2806 20 l-2806 0 8
22 c5 13 10 783 11 1712 4 1836 6 1742 -49 1836 -30 50 -95 116 -148 150 -93
59 -105 60 -662 60 l-508 0 0 760 c0 829 2 803 -57 851 -29 24 -30 27 -46 186
-16 168 -25 201 -101 383 -25 62 -38 112 -46 180 -31 287 -171 1235 -226 1533
-19 103 -49 241 -68 305 -19 65 -55 223 -81 352 -66 335 -151 652 -211 788
-13 30 -24 56 -24 58 0 2 13 1 29 -2 20 -4 30 -2 34 10 7 17 3 20 -45 30 -17
4 -68 47 -130 109 -101 101 -220 188 -370 271 -48 27 -68 44 -68 57 0 11 -6
22 -12 24 -7 2 -93 32 -191 66 -98 33 -190 62 -205 63 -42 4 -156 38 -168 50
-6 6 -28 57 -49 113 -37 98 -40 103 -74 113 -20 5 -44 10 -53 10 -9 0 -19 3
-22 8 -2 4 -14 73 -27 154 l-22 146 29 45 c17 24 41 72 54 106 23 56 28 62 64
72 73 20 176 138 191 220 15 81 -40 169 -107 169 -28 0 -29 2 -23 31 11 51 8
348 -4 419 -22 126 -51 190 -111 250 -135 136 -416 217 -609 176 -144 -30
-389 -156 -481 -246 -71 -70 -84 -109 -72 -232 7 -80 6 -89 -10 -94 -21 -6
-22 -19 -7 -80 8 -32 16 -44 30 -44 15 0 19 -8 21 -37 1 -21 2 -51 3 -68 1
-16 9 -54 19 -83 10 -29 16 -55 15 -57 -2 -1 -21 -10 -41 -18 -68 -28 -92
-131 -50 -213 41 -81 150 -164 214 -164 22 0 32 -10 58 -54 17 -30 51 -77 75
-104 l44 -49 3 -138 3 -139 -24 -6 c-21 -5 -32 -25 -72 -134 -27 -71 -52 -133
-56 -137 -4 -4 -37 -23 -73 -41 -139 -73 -396 -222 -410 -238 -8 -9 -76 -58
-150 -108 -75 -50 -166 -119 -204 -153 -63 -58 -74 -75 -141 -213 -81 -168
-123 -261 -333 -746 -250 -578 -268 -629 -259 -736 8 -108 88 -244 168 -284
44 -23 143 -26 275 -10 171 22 266 60 407 165 48 35 87 61 87 57 0 -4 2 -79 5
-167 6 -199 8 -1812 2 -1822 -3 -5 -8 -246 -11 -538 -4 -291 -11 -741 -16
-1000 -5 -258 -10 -521 -10 -582 l0 -113 89 0 c48 0 115 -3 148 -6 l61 -7 -4
-36 c-3 -20 -16 -124 -29 -231 -37 -291 -52 -715 -37 -1050 14 -301 52 -832
83 -1150 41 -423 39 -497 -22 -687 l-30 -93 -211 0 -210 0 8 23 c5 12 10 785
11 1717 3 1886 9 1744 -66 1857 -50 74 -134 137 -218 163 -59 18 -93 20 -344
20 l-279 0 0 859 c0 585 -3 869 -11 888 -16 42 -48 72 -92 84 l-39 10 7 55 c7
55 6 56 -34 94 -50 48 -134 80 -209 80 -31 0 -97 -11 -147 -24 -49 -13 -92
-23 -94 -20 -2 2 -23 108 -48 236 -24 128 -82 431 -128 674 l-85 441 0 165 0
166 53 12 c137 31 237 63 237 77 0 19 -90 521 -146 813 -74 385 -123 601 -154
667 -35 76 -91 132 -155 157 -28 10 -99 36 -160 58 -60 22 -114 44 -120 48 -5
4 -42 17 -82 29 l-72 21 39 83 c43 92 70 185 73 255 l2 47 42 6 c78 10 96 44
135 254 20 108 27 127 70 195 35 55 48 85 48 112 0 34 -6 41 -53 77 -29 21
-60 50 -69 62 -22 35 -45 113 -62 211 -9 56 -25 107 -44 143 l-30 55 52 58
c119 134 187 239 201 313 6 35 8 35 75 47 37 6 103 23 146 37 44 14 117 30
164 34 47 5 97 14 111 21 80 36 46 160 -44 160 l-40 0 7 38 c17 87 18 122 7
136 -7 8 -47 27 -89 42 -42 15 -79 29 -80 30 -9 6 12 48 58 119 72 109 90 149
90 198 0 71 -45 90 -92 40z m52 -43 c0 -35 -26 -90 -80 -170 -67 -99 -82 -145
-94 -282 -5 -56 -4 -59 27 -82 59 -44 99 -58 178 -63 91 -7 99 -10 102 -48 3
-38 -30 -55 -105 -55 -32 0 -91 -11 -135 -25 -103 -32 -201 -55 -239 -55 -21
0 -39 9 -60 31 -39 42 -99 69 -156 69 -27 0 -48 3 -48 8 0 4 27 30 61 57 33
28 85 80 115 117 29 37 96 112 148 167 51 55 133 159 181 231 48 71 92 130 96
130 5 0 9 -14 9 -30z m21 -405 c5 -4 9 -15 9 -25 0 -36 -23 -119 -35 -124 -14
-5 -105 33 -105 44 0 5 14 11 30 15 32 7 35 12 22 33 -7 10 -15 10 -36 2 -44
-17 -48 -14 -41 38 10 77 7 75 80 47 37 -13 70 -27 76 -30z m-1294 -75 c61
-36 316 -225 321 -238 7 -19 -134 -159 -238 -238 -94 -71 -296 -178 -465 -247
-105 -43 -356 -130 -361 -124 -1 1 -12 91 -23 200 l-22 199 20 42 c30 61 121
167 199 232 83 69 166 116 272 155 143 52 232 58 297 19z m776 -254 c38 -15
97 -79 97 -104 0 -34 -58 -138 -120 -217 -204 -257 -511 -496 -846 -660 -230
-113 -416 -162 -645 -172 -122 -5 -140 -4 -182 15 -42 19 -47 24 -47 53 0 21
18 60 54 118 30 47 74 121 98 163 l44 77 17 -71 c24 -102 35 -112 124 -105
130 10 547 168 747 283 171 98 325 235 411 363 68 104 68 113 0 177 -46 42
-55 55 -42 60 89 34 233 44 290 20z m4036 -418 c43 -45 37 -114 -16 -191 -26
-38 -98 -97 -118 -97 -8 0 28 178 61 298 5 20 51 14 73 -10z m-1225 -148 c18
-52 45 -121 59 -152 24 -53 25 -58 9 -58 -29 0 -112 60 -143 103 -38 52 -50
98 -38 142 10 35 44 68 67 63 7 -2 28 -46 46 -98z m-2933 -6 c30 -52 32 -72 9
-79 -12 -4 -37 -20 -56 -37 -27 -24 -32 -33 -23 -44 9 -11 18 -8 51 17 22 18
43 28 47 23 4 -5 15 -43 23 -85 24 -112 52 -164 114 -210 29 -21 55 -43 58
-48 7 -10 -30 -82 -73 -141 -17 -24 -31 -48 -31 -54 0 -6 -22 -12 -49 -14 -44
-3 -54 1 -87 30 l-37 33 6 -78 c11 -129 54 -175 118 -128 34 25 33 27 14 -53
-25 -96 -35 -116 -64 -122 -14 -3 -33 -8 -41 -10 -10 -2 -24 12 -39 42 -15 27
-72 90 -142 156 -184 172 -217 239 -163 338 15 28 68 100 117 158 98 116 120
157 115 208 -2 29 5 41 47 84 27 28 54 49 60 47 5 -2 17 -17 26 -33z m3854
-456 c9 -53 35 -223 35 -228 0 -3 -109 -5 -243 -6 -165 -1 -268 -6 -323 -15
l-81 -15 -7 114 c-3 64 -4 117 -2 120 3 2 24 -4 48 -13 34 -14 69 -18 163 -17
143 0 260 22 335 60 71 37 68 37 75 0z m-3777 -263 c1 -1 -2 -15 -8 -31 -11
-28 -26 -44 -43 -44 -8 0 -37 61 -37 79 0 7 78 4 88 -4z m3813 -16 c123 -17
121 -15 159 -113 18 -48 31 -88 29 -91 -3 -2 -178 -13 -389 -24 -212 -12 -431
-24 -487 -27 -57 -4 -103 -4 -103 0 0 19 75 203 87 212 12 10 140 33 268 48
74 8 360 5 436 -5z m327 -278 c39 -13 72 -28 72 -33 0 -10 -224 -730 -289
-928 -32 -97 -15 -90 -173 -72 -138 17 -296 15 -348 -3 -61 -22 -65 -20 -89
34 -11 27 -109 240 -217 473 -107 232 -198 428 -200 434 -3 7 16 24 43 39 l48
28 480 28 c264 15 507 26 540 25 33 -2 93 -13 133 -25z m554 -232 c161 -91
332 -219 387 -288 63 -80 122 -228 190 -474 37 -138 125 -527 119 -531 -2 -1
-46 -8 -98 -14 -175 -22 -341 -88 -437 -175 -29 -27 -55 -48 -57 -46 -2 2 -36
105 -75 229 -66 206 -75 243 -102 434 -16 115 -29 212 -29 217 0 5 -9 9 -20 9
-24 0 -24 1 -1 -167 10 -73 16 -133 14 -133 -1 0 -14 23 -28 50 -14 28 -30 50
-35 50 -26 0 -18 -35 30 -131 l52 -103 -7 -333 c-4 -183 -11 -336 -16 -339 -5
-3 -9 2 -9 12 0 46 -57 261 -93 353 -44 113 -122 245 -192 327 l-43 50 108
310 c60 170 141 405 182 521 40 117 76 213 80 213 3 0 39 -19 80 -41z m-1982
-541 c117 -249 214 -460 216 -468 2 -9 -24 -36 -67 -68 -129 -99 -180 -183
-230 -378 -93 -370 -223 -1423 -230 -1874 -2 -79 -2 -82 -9 -35 -5 28 -9 264
-10 525 -2 261 -6 666 -10 900 l-7 425 -42 210 c-22 116 -53 272 -67 348 -23
118 -29 137 -45 137 -11 0 -19 -5 -19 -10 0 -6 30 -169 66 -362 36 -194 64
-364 61 -378 -2 -14 -47 -89 -100 -167 l-97 -142 -72 23 c-159 49 -282 117
-341 189 -54 67 -100 147 -100 176 0 29 244 598 385 898 86 183 94 196 157
256 56 52 323 245 342 247 4 0 102 -204 219 -452z m-2930 315 c0 -5 -11 -21
-25 -38 l-24 -30 -1 26 c0 14 5 30 12 37 13 13 38 16 38 5z m257 -90 c73 -26
130 -50 126 -54 -10 -8 -293 -99 -310 -99 -6 0 -20 16 -32 35 l-21 36 43 64
c23 36 46 65 51 65 6 0 70 -21 143 -47z m246 -126 c46 -60 65 -113 101 -273
59 -268 241 -1232 233 -1240 -9 -9 -187 -54 -272 -70 -105 -18 -486 -27 -502
-10 -4 4 -10 206 -11 448 l-4 440 26 58 c47 105 68 205 69 325 1 97 -3 118
-26 179 -15 38 -26 71 -23 73 2 2 82 30 177 62 122 41 179 56 191 50 9 -5 28
-24 41 -42z m-1862 -619 c26 -21 54 -54 64 -74 15 -32 16 -44 5 -95 -27 -124
11 -251 101 -341 45 -45 152 -108 184 -108 8 0 15 -5 15 -11 0 -10 -317 -485
-347 -520 -12 -14 -21 -15 -56 -6 -23 5 -46 13 -51 17 -9 9 -9 903 0 1083 6
105 8 116 23 105 9 -7 37 -29 62 -50z m6261 -245 c15 -49 56 -178 89 -288 113
-373 151 -490 204 -630 101 -269 241 -684 392 -1165 52 -168 55 -178 49 -255
-5 -76 -10 -89 -90 -245 -46 -91 -91 -186 -99 -211 -9 -26 -27 -63 -41 -84
l-26 -38 0 -773 0 -774 -85 0 c-60 0 -87 4 -90 13 -7 18 -172 1595 -195 1852
-6 72 -25 202 -42 290 -16 88 -30 169 -29 180 10 324 -13 688 -75 1190 -24
193 -26 230 -20 455 9 363 18 581 24 575 3 -2 18 -44 34 -92z m-4883 -539 l1
-221 31 -7 c17 -3 44 -6 60 -6 l29 0 0 -114 0 -113 -62 -7 c-215 -22 -665 -16
-943 14 -156 17 -333 43 -346 50 -8 6 43 89 166 271 98 145 183 267 189 271 6
4 39 8 73 8 131 0 318 59 454 142 98 61 237 191 294 276 l40 60 6 -202 c3
-110 7 -301 8 -422z m4036 546 c17 -4 -8 -5 -55 -2 -47 2 -87 6 -89 8 -8 7
114 2 144 -6z m-185 -7 c-19 -2 -84 -13 -144 -24 -59 -11 -110 -18 -113 -16
-7 8 200 45 247 45 37 -1 39 -2 10 -5z m270 -19 c23 -9 39 -18 37 -20 -2 -3
-24 4 -48 15 -54 24 -45 27 11 5z m1489 -66 c7 -29 29 -118 51 -198 71 -261
186 -982 298 -1876 6 -49 25 -106 59 -185 28 -63 55 -136 61 -164 14 -64 32
-217 32 -274 l0 -44 -42 9 c-24 4 -100 8 -171 9 -81 0 -125 4 -123 10 21 47
28 87 19 96 -14 14 -33 3 -33 -20 0 -25 -52 -104 -98 -146 l-39 -37 13 -62
c20 -91 18 -143 -5 -155 -14 -8 -22 -7 -32 5 -27 33 -140 220 -145 242 -4 13
2 44 11 70 22 57 102 218 144 290 25 42 32 70 42 154 l11 103 -41 135 c-100
323 -308 946 -384 1151 -46 123 -100 276 -120 339 -54 173 -97 326 -97 343 0
8 21 38 46 66 51 57 161 116 271 145 51 14 204 41 250 45 6 1 16 -23 22 -51z
m-1374 2 c3 -5 -10 -1 -29 11 -20 12 -36 23 -36 25 0 7 58 -25 65 -36z m-700
20 c-11 -5 -27 -9 -35 -9 -9 0 -8 4 5 9 11 5 27 9 35 9 9 0 8 -4 -5 -9z m452
-17 c-20 -2 -52 -2 -70 0 -17 2 0 4 38 4 39 0 53 -2 32 -4z m-707 -67 c0 -2
-21 -16 -47 -31 -27 -16 -68 -44 -93 -63 -37 -30 -41 -31 -20 -8 14 15 54 45
90 67 67 40 70 42 70 35z m167 -12 c-3 -3 -12 -4 -19 -1 -8 3 -5 6 6 6 11 1
17 -2 13 -5z m1037 -131 c66 -73 35 -47 -54 44 -47 48 -62 67 -35 43 28 -25
67 -64 89 -87z m-1134 103 c0 -2 -13 -9 -30 -15 -35 -12 -41 -5 -7 9 25 10 37
12 37 6z m1058 -61 c19 -16 47 -48 64 -70 29 -39 29 -38 -11 5 -23 25 -61 63
-84 85 -24 22 -34 33 -23 25 12 -8 36 -28 54 -45z m-1178 4 c-30 -16 -68 -42
-85 -57 -29 -26 -29 -26 -7 -1 12 14 20 29 17 32 -3 4 -2 5 1 2 4 -2 29 9 58
25 28 17 56 30 61 30 6 0 -15 -14 -45 -31z m-1414 -56 c84 -134 196 -213 392
-278 58 -19 82 -32 78 -41 -3 -7 -34 -57 -68 -111 -35 -54 -67 -103 -71 -109
-4 -7 0 -17 7 -23 12 -10 45 34 186 246 95 142 176 262 181 268 5 5 9 -66 9
-173 l0 -182 -100 -75 c-174 -129 -273 -163 -496 -172 l-142 -6 -44 41 c-71
65 -130 197 -121 267 9 74 130 405 148 405 2 0 21 -26 41 -57z m1216 -83 c-14
-32 -28 -57 -30 -55 -5 4 45 115 52 115 2 0 -8 -27 -22 -60z m1599 -105 c20
-46 63 -214 56 -221 -2 -3 -14 38 -26 90 -12 52 -32 115 -45 140 -13 25 -19
43 -13 39 5 -3 18 -25 28 -48z m-1668 -108 c-15 -59 -29 -104 -32 -102 -2 3 8
52 24 110 15 58 30 104 32 102 2 -3 -9 -52 -24 -110z m1657 -23 c11 -36 20
-71 19 -78 0 -6 -11 23 -25 64 -27 85 -26 80 -19 80 2 0 13 -30 25 -66z
m-1592 -2 c-6 -29 -13 -50 -16 -47 -2 2 1 27 8 55 7 28 14 49 16 47 3 -2 -1
-27 -8 -55z m-21 -84 c-3 -8 -6 -5 -6 6 -1 11 2 17 5 13 3 -3 4 -12 1 -19z
m-82 -48 c-9 -41 -17 -33 -9 9 4 17 9 30 11 27 3 -2 2 -19 -2 -36z m61 -37
c-9 -35 -13 -42 -9 -18 4 22 7 52 7 67 1 15 5 23 10 18 5 -5 2 -33 -8 -67z
m1661 55 c-3 -8 -6 -5 -6 6 -1 11 2 17 5 13 3 -3 4 -12 1 -19z m61 -63 c0 -16
-2 -15 -8 5 -4 14 -8 36 -8 50 0 22 1 22 8 -5 4 -16 8 -39 8 -50z m-30 -50 c0
-11 -6 3 -14 30 -7 28 -13 55 -13 60 2 17 27 -69 27 -90z m-4138 -98 c0 -182
0 -186 59 -498 76 -403 190 -998 196 -1025 5 -22 5 -21 137 13 118 30 137 33
183 23 29 -6 77 -27 108 -46 60 -37 62 -43 48 -109 -6 -30 -7 -30 -89 -35 -70
-5 -87 -9 -100 -27 -21 -27 -171 -65 -259 -67 -66 -1 -97 14 -135 65 -21 28
-233 595 -469 1259 l-70 195 7 212 7 212 151 4 c83 1 168 4 189 5 l37 2 0
-183z m2367 121 c-3 -8 -6 -5 -6 6 -1 11 2 17 5 13 3 -3 4 -12 1 -19z m1810
-35 c-3 -10 -5 -4 -5 12 0 17 2 24 5 18 2 -7 2 -21 0 -30z m-1753 -37 c-3 -21
-8 -35 -11 -32 -2 2 -1 20 3 40 3 21 8 35 11 32 2 -2 1 -20 -3 -40z m1723 -8
c-3 -7 -5 -2 -5 12 0 14 2 19 5 13 2 -7 2 -19 0 -25z m40 -10 c-3 -7 -5 -2 -5
12 0 14 2 19 5 13 2 -7 2 -19 0 -25z m-30 -30 c-3 -8 -6 -5 -6 6 -1 11 2 17 5
13 3 -3 4 -12 1 -19z m40 -20 c-3 -7 -5 -2 -5 12 0 14 2 19 5 13 2 -7 2 -19 0
-25z m-1793 -22 c-3 -21 -8 -35 -11 -32 -2 2 -1 20 3 40 3 21 8 35 11 32 2 -2
1 -20 -3 -40z m1790 -68 c8 -5 7 -8 -1 -8 -16 0 -20 8 -26 60 l-6 45 11 -45
c6 -25 16 -48 22 -52z m-5779 42 c77 -10 205 -24 285 -31 163 -14 674 -18 793
-6 l77 8 0 -80 c0 -68 6 -98 44 -208 49 -143 196 -548 337 -928 78 -213 93
-261 97 -325 3 -53 0 -89 -12 -123 -14 -41 -16 -111 -16 -509 0 -401 -3 -486
-21 -642 -38 -335 -56 -446 -75 -468 -30 -32 -191 -105 -294 -133 -166 -44
-303 -59 -545 -58 -323 0 -584 39 -840 125 -97 32 -285 114 -303 133 -30 29
-50 1844 -24 2160 17 206 56 528 88 725 l25 155 77 118 77 118 45 -6 c25 -3
108 -14 185 -25z m3972 -52 c-3 -7 -5 -2 -5 12 0 14 2 19 5 13 2 -7 2 -19 0
-25z m-10 -50 c-3 -7 -5 -2 -5 12 0 14 2 19 5 13 2 -7 2 -19 0 -25z m-10 -40
c-3 -8 -6 -5 -6 6 -1 11 2 17 5 13 3 -3 4 -12 1 -19z m1840 -30 c-3 -8 -6 -5
-6 6 -1 11 2 17 5 13 3 -3 4 -12 1 -19z m-1900 -10 c-3 -8 -6 -5 -6 6 -1 11 2
17 5 13 3 -3 4 -12 1 -19z m45 -20 c-6 -6 -7 0 -4 19 5 21 7 23 10 9 2 -10 0
-22 -6 -28z m1865 -20 c-3 -8 -6 -5 -6 6 -1 11 2 17 5 13 3 -3 4 -12 1 -19z
m-1930 -90 c-3 -8 -6 -5 -6 6 -1 11 2 17 5 13 3 -3 4 -12 1 -19z m110 -35 c-3
-10 -5 -4 -5 12 0 17 2 24 5 18 2 -7 2 -21 0 -30z m-98 -68 c16 -20 16 -20 -6
-1 -13 11 -22 29 -22 40 1 20 2 20 6 1 3 -11 12 -29 22 -40z m334 48 c-7 -2
-19 -2 -25 0 -7 3 -2 5 12 5 14 0 19 -2 13 -5z m-246 -35 c-3 -7 -5 -2 -5 12
0 14 2 19 5 13 2 -7 2 -19 0 -25z m300 26 c-3 -3 -12 -4 -19 -1 -8 3 -5 6 6 6
11 1 17 -2 13 -5z m56 -11 c-7 -2 -21 -2 -30 0 -10 3 -4 5 12 5 17 0 24 -2 18
-5z m60 -10 c-7 -2 -21 -2 -30 0 -10 3 -4 5 12 5 17 0 24 -2 18 -5z m162 -17
c62 -9 83 -14 55 -14 -25 0 -81 5 -125 13 -106 17 -57 17 70 1z m1195 -13 c0
-12 -3 -14 -8 -6 -4 6 -28 13 -52 16 l-45 4 53 1 c44 2 52 -1 52 -15z m-1778
-20 c-3 -16 -7 -22 -10 -15 -4 13 4 42 11 42 2 0 2 -12 -1 -27z m1663 22 c-22
-8 -134 -11 -123 -3 7 4 40 7 73 7 33 0 56 -2 50 -4z m222 -17 c-3 -8 -6 -5
-6 6 -1 11 2 17 5 13 3 -3 4 -12 1 -19z m-1064 5 c6 -9 -123 -6 -131 2 -3 3
24 5 61 5 36 0 68 -3 70 -7z m664 0 c-20 -2 -52 -2 -70 0 -17 2 0 4 38 4 39 0
53 -2 32 -4z m-259 -10 c-71 -2 -185 -2 -255 0 -71 1 -13 3 127 3 140 0 198
-2 128 -3z m569 -55 c-3 -8 -6 -5 -6 6 -1 11 2 17 5 13 3 -3 4 -12 1 -19z
m-1810 -20 c-3 -7 -5 -2 -5 12 0 14 2 19 5 13 2 -7 2 -19 0 -25z m1910 10 c-3
-8 -6 -5 -6 6 -1 11 2 17 5 13 3 -3 4 -12 1 -19z m13 -68 c0 -10 -4 -21 -9
-24 -4 -3 -8 8 -7 23 1 31 16 32 16 1z m-1837 -46 c51 -10 85 -19 77 -21 -8
-1 -51 5 -95 15 -55 12 -80 22 -81 32 0 8 1 10 3 4 2 -7 45 -20 96 -30z m172
-34 c27 -7 27 -8 5 -8 -14 0 -38 4 -55 8 -27 7 -27 8 -5 8 14 0 39 -4 55 -8z
m1598 3 c-7 -2 -19 -2 -25 0 -7 3 -2 5 12 5 14 0 19 -2 13 -5z m-55 -10 c-10
-2 -26 -2 -35 0 -10 3 -2 5 17 5 19 0 27 -2 18 -5z m-1388 -17 c41 -8 64 -14
50 -14 -14 0 -59 5 -100 12 -41 8 -64 14 -50 14 14 0 59 -5 100 -12z m1318 7
c-10 -2 -28 -2 -40 0 -13 2 -5 4 17 4 22 1 32 -1 23 -4z m-1673 -13 c25 -7 23
-8 -17 -6 -27 0 -48 4 -48 9 0 8 24 7 65 -3z m1588 3 c-13 -2 -33 -2 -45 0
-13 2 -3 4 22 4 25 0 35 -2 23 -4z m-158 -13 c-3 -5 -27 -9 -53 -8 l-47 1 45
7 c25 4 49 8 53 8 5 1 5 -2 2 -8z m73 3 c-10 -2 -28 -2 -40 0 -13 2 -5 4 17 4
22 1 32 -1 23 -4z m-1435 -10 c-7 -2 -19 -2 -25 0 -7 3 -2 5 12 5 14 0 19 -2
13 -5z m430 0 c-13 -2 -33 -2 -45 0 -13 2 -3 4 22 4 25 0 35 -2 23 -4z m-380
-10 c-7 -2 -19 -2 -25 0 -7 3 -2 5 12 5 14 0 19 -2 13 -5z m470 0 c-13 -2 -33
-2 -45 0 -13 2 -3 4 22 4 25 0 35 -2 23 -4z m695 0 c-16 -2 -40 -2 -55 0 -16
2 -3 4 27 4 30 0 43 -2 28 -4z m-1115 -10 c-7 -2 -19 -2 -25 0 -7 3 -2 5 12 5
14 0 19 -2 13 -5z m545 0 c-16 -2 -40 -2 -55 0 -16 2 -3 4 27 4 30 0 43 -2 28
-4z m420 0 c-21 -2 -57 -2 -80 0 -24 2 -7 4 37 4 44 0 63 -2 43 -4z m-905 -10
c-7 -2 -19 -2 -25 0 -7 3 -2 5 12 5 14 0 19 -2 13 -5z m675 0 c-16 -2 -40 -2
-55 0 -16 2 -3 4 27 4 30 0 43 -2 28 -4z m822 -10 c0 -11 -3 -14 -8 -7 -4 6
-14 14 -22 17 -10 4 -8 6 8 6 15 1 22 -5 22 -16z m-1437 0 c-7 -2 -19 -2 -25
0 -7 3 -2 5 12 5 14 0 19 -2 13 -5z m1365 0 c-10 -2 -26 -2 -35 0 -10 3 -2 5
17 5 19 0 27 -2 18 -5z m-1295 -10 c-7 -2 -19 -2 -25 0 -7 3 -2 5 12 5 14 0
19 -2 13 -5z m1210 0 c-7 -2 -21 -2 -30 0 -10 3 -4 5 12 5 17 0 24 -2 18 -5z
m-85 -10 c-10 -2 -26 -2 -35 0 -10 3 -2 5 17 5 19 0 27 -2 18 -5z m-971 -9
c-3 -3 -12 -4 -19 -1 -8 3 -5 6 6 6 11 1 17 -2 13 -5z m830 0 c-3 -3 -12 -4
-19 -1 -8 3 -5 6 6 6 11 1 17 -2 13 -5z m380 -61 c-2 -16 -4 -5 -4 22 0 28 2
40 4 28 2 -13 2 -35 0 -50z m0 -55 c-3 -8 -6 -5 -6 6 -1 11 2 17 5 13 3 -3 4
-12 1 -19z m10 -305 c-1 -54 -3 -10 -3 97 0 107 2 151 3 98 2 -54 2 -142 0
-195z m0 -185 c-2 -18 -4 -6 -4 27 0 33 2 48 4 33 2 -15 2 -42 0 -60z m-1811
-55 c15 -20 23 -33 16 -29 -13 8 -56 66 -49 66 3 0 17 -17 33 -37z m1789 -44
c-8 -19 -13 -25 -9 -14 3 11 8 34 12 50 3 17 8 23 10 14 1 -9 -4 -32 -13 -50z
m-25 -59 c-14 -26 -74 -86 -101 -100 -11 -7 8 17 43 53 72 74 72 74 58 47z
m-1630 -31 c25 -22 71 -56 103 -76 57 -36 77 -54 35 -32 -60 31 -210 149 -191
149 4 0 28 -18 53 -41z m1500 -85 c0 -6 -65 -34 -77 -33 -4 0 10 9 32 19 48
22 45 21 45 14z m-135 -54 c-27 -12 -43 -12 -25 0 8 5 22 9 30 9 10 0 8 -3 -5
-9z m-3570 -33 c22 0 88 4 146 8 102 7 107 7 129 -15 19 -19 29 -21 73 -16 27
4 63 14 79 22 16 8 41 14 56 12 l27 -3 3 -857 2 -858 -325 0 -325 0 0 853 c0
470 3 857 8 861 4 4 25 4 47 0 22 -4 58 -8 80 -7z m2698 -34 c-7 -2 -19 -2
-25 0 -7 3 -2 5 12 5 14 0 19 -2 13 -5z m434 1 c-3 -3 -12 -4 -19 -1 -8 3 -5
6 6 6 11 1 17 -2 13 -5z m-194 -11 c-23 -2 -64 -2 -90 0 -26 2 -7 3 42 3 50 0
71 -1 48 -3z m2275 -49 c63 -17 70 -160 8 -179 -40 -13 -312 -18 -333 -7 -15
8 -22 26 -27 63 -7 49 -5 54 25 85 22 22 44 34 68 37 63 6 235 7 259 1z m92
-884 l0 -730 -319 0 c-282 0 -320 2 -325 16 -9 23 -7 1434 2 1434 4 0 23 -26
41 -57 48 -82 60 -93 98 -93 39 0 73 29 73 63 0 22 2 22 105 19 58 -2 143 1
188 7 73 9 85 14 107 41 14 16 26 30 28 30 1 0 2 -328 2 -730z m-2268 338 c13
-11 22 -68 42 -293 14 -154 44 -476 66 -715 22 -239 42 -462 45 -495 3 -33 8
-80 11 -104 l6 -43 81 6 c45 3 117 9 160 12 l77 7 0 -224 c0 -395 26 -690 150
-1704 98 -800 101 -872 55 -1181 l-18 -114 -613 0 c-338 0 -614 1 -614 3 -8
48 -30 271 -40 391 -14 173 17 479 120 1194 75 523 86 680 70 1008 -11 212
-11 296 -2 408 7 78 12 159 12 181 l0 40 129 -3 c146 -4 136 -11 140 93 1 33
13 256 26 495 32 560 55 997 55 1027 0 25 17 30 42 11z m-3290 -865 l-4 -203
-127 0 -126 1 75 39 c41 21 89 51 107 67 30 26 33 35 48 143 17 122 24 165 29
159 1 -2 1 -95 -2 -206z m-1583 -228 c102 -24 288 -53 394 -61 60 -4 97 -11
97 -18 0 -6 -11 -108 -25 -226 -30 -247 -22 -224 -185 -520 -369 -669 -890
-1701 -989 -1958 -58 -151 -100 -370 -103 -532 -1 -60 3 -75 36 -135 33 -61
37 -74 31 -115 -3 -25 -9 -51 -13 -57 -5 -8 -43 9 -112 49 -58 33 -156 87
-218 120 l-113 60 6 42 c37 242 311 1354 445 1807 107 362 145 443 463 999 77
135 151 268 163 295 20 42 44 178 44 248 0 21 -1 21 79 2z m2574 -22 c-226 -2
-600 -2 -830 0 -230 1 -44 2 412 2 457 0 645 -1 418 -2z m3786 -21 c-62 -40
-116 -104 -153 -181 l-31 -66 0 -1700 c0 -1622 1 -1702 18 -1752 25 -72 95
-164 150 -199 26 -16 46 -33 47 -38 0 -4 -84 -6 -187 -4 -164 4 -195 7 -245
27 -75 29 -136 78 -180 143 -73 107 -69 -24 -66 1838 l3 1675 27 57 c48 103
144 187 247 214 28 8 118 13 230 13 l185 1 -45 -28z m2011 -8 c79 -37 150
-107 188 -183 l27 -56 0 -1705 0 -1705 -33 -67 c-55 -111 -152 -184 -277 -207
-78 -15 -1670 -15 -1746 -1 -126 24 -227 102 -282 218 l-32 67 -3 1660 c-3
1739 -4 1723 40 1808 44 87 143 168 237 193 35 10 252 12 931 11 l885 -2 65
-31z m-7265 4 c-37 -20 -110 -105 -137 -159 -14 -30 -31 -78 -37 -107 -8 -37
-11 -310 -11 -880 0 -740 -2 -850 -20 -1042 -16 -179 -56 -719 -74 -1009 -6
-87 8 -128 58 -181 34 -35 34 -35 39 -156 l5 -121 -76 -7 c-104 -8 -304 -7
-319 2 -10 6 -10 28 -2 97 12 103 13 88 -47 825 -24 305 -50 645 -58 755 -17
258 -20 720 -6 916 19 263 103 1026 115 1037 2 3 72 6 155 8 172 3 267 11 360
28 69 13 87 11 55 -6z m188 15 c-7 -2 -19 -2 -25 0 -7 3 -2 5 12 5 14 0 19 -2
13 -5z m1754 1 c-3 -3 -12 -4 -19 -1 -8 3 -5 6 6 6 11 1 17 -2 13 -5z m-1812
-14 c-27 -12 -43 -12 -25 0 8 5 22 9 30 9 10 0 8 -3 -5 -9z m1897 -16 c94 -48
179 -156 194 -247 3 -18 -5 -5 -16 28 -37 101 -97 168 -195 216 -33 16 -54 29
-47 29 7 0 36 -12 64 -26z m-1942 1 c0 -2 -14 -12 -31 -20 -16 -9 -49 -33 -72
-53 -31 -27 -36 -29 -17 -8 14 16 45 42 69 57 47 30 51 32 51 24z m2148 -2290
l-3 -1340 -27 -57 c-37 -80 -107 -152 -187 -191 l-66 -32 -869 -3 c-594 -2
-887 1 -922 8 -53 11 -175 77 -182 99 -2 7 16 -3 41 -22 100 -76 36 -72 1037
-72 l895 0 55 26 c79 37 162 114 172 159 2 8 8 20 15 27 31 34 33 121 35 1761
2 906 4 1496 6 1312 1 -184 1 -938 0 -1675z m-2361 -462 c-1 -439 -2 -80 -2
797 0 877 1 1236 2 798 2 -439 2 -1157 0 -1595z m3294 2291 l167 -7 5 -33 c3
-18 1 -64 -5 -101 -7 -41 -10 -163 -8 -308 10 -636 11 -620 -70 -1200 -120
-855 -134 -1040 -104 -1366 l7 -66 -49 8 c-75 12 -212 10 -281 -5 -35 -7 -63
-10 -63 -7 0 3 7 38 15 76 20 95 19 209 -5 438 -24 244 -65 760 -85 1077 -25
410 -17 898 21 1170 7 58 19 152 25 210 6 58 13 111 15 119 4 11 27 13 127 8
67 -4 197 -10 288 -13z m1399 -1554 l0 -1570 -25 0 c-14 0 -28 6 -31 14 -3 8
0 59 6 113 26 213 18 327 -90 1218 -112 924 -129 1133 -130 1546 l0 226 128
10 c70 5 130 10 135 11 4 1 7 -704 7 -1568z m-5272 1168 c-20 -200 -23 -286
-22 -613 1 -394 13 -605 79 -1375 13 -157 28 -330 32 -385 11 -141 8 -350 -6
-417 l-12 -58 -434 0 -434 0 -58 34 c-32 19 -73 46 -92 60 -49 36 -175 191
-206 253 l-26 51 11 119 c21 216 56 348 148 558 76 175 553 1125 733 1460 244
455 304 563 307 554 2 -4 -7 -113 -20 -241z m520 -2276 l-3 -227 -28 47 -28
47 15 253 c9 139 18 271 21 293 2 22 8 92 12 155 8 109 8 103 11 -113 1 -125
1 -329 0 -455z m-1836 -408 c80 -46 153 -86 161 -90 15 -6 47 59 47 96 0 32
15 24 56 -31 57 -74 246 -193 370 -233 57 -18 65 -33 52 -84 -7 -25 -18 -37
-46 -49 -59 -25 -238 -12 -482 36 -113 22 -243 45 -290 50 -106 13 -204 59
-238 111 -28 43 -26 62 30 215 21 61 41 116 43 123 5 15 87 -24 297 -144z
m5136 -43 c23 -5 45 -11 48 -14 3 -2 7 -74 10 -158 5 -144 4 -156 -15 -187
-34 -53 -98 -76 -190 -69 -76 6 -185 33 -262 64 l-41 16 5 56 c5 51 69 243 88
265 25 28 258 46 357 27z m1453 -57 c3 -2 14 -25 24 -51 42 -111 112 -186 222
-239 70 -34 73 -37 73 -71 l0 -35 -172 4 c-181 5 -241 17 -255 54 -6 17 9 178
29 292 l10 63 32 -7 c17 -3 34 -8 37 -10z m-4697 -109 c37 -72 121 -150 201
-186 93 -42 86 -55 -32 -63 -54 -4 -163 -14 -243 -23 -201 -22 -323 -10 -384
38 -23 18 -26 28 -26 77 0 51 15 170 24 197 2 6 86 11 217 12 l214 2 29 -54z
m5646 -244 c0 -16 -14 -19 -137 -25 -76 -3 -182 -9 -235 -13 l-98 -6 0 30 c0
16 2 32 4 34 2 2 108 3 235 1 215 -3 231 -4 231 -21z m-5165 9 c-3 -5 -15 -10
-25 -10 -10 0 -22 5 -25 10 -4 6 7 10 25 10 18 0 29 -4 25 -10z"/>
<path d="M11400 11564 c-14 -36 -12 -77 4 -100 19 -24 35 -10 42 37 6 37 -9
89 -26 89 -6 0 -15 -12 -20 -26z"/>
<path d="M15030 10507 c0 -15 48 -157 79 -236 56 -140 153 -311 176 -311 28 0
26 23 -3 63 -56 79 -162 316 -203 455 -9 30 -18 42 -31 42 -10 0 -18 -6 -18
-13z"/>
<path d="M13507 9823 c-9 -14 217 -583 231 -583 29 0 20 39 -57 232 -44 112
-93 237 -109 278 -27 68 -51 95 -65 73z"/>
<path d="M10050 7084 c0 -44 173 -570 257 -784 80 -201 183 -410 253 -509 46
-64 54 -71 67 -59 13 13 7 25 -43 99 -94 138 -214 402 -324 712 -44 126 -143
441 -161 513 -8 33 -16 44 -30 44 -11 0 -19 -7 -19 -16z"/>
<path d="M9944 6876 c-6 -15 162 -366 174 -366 4 0 13 4 20 9 11 6 -7 50 -77
190 -50 99 -96 181 -101 181 -6 0 -13 -6 -16 -14z"/>
<path d="M9912 13118 c-11 -57 -9 -68 13 -68 8 0 18 20 24 50 14 67 14 70 -8
70 -14 0 -21 -12 -29 -52z"/>
<path d="M26154 13099 c-3 -6 13 -31 37 -55 32 -33 46 -41 56 -33 10 9 5 20
-25 55 -38 44 -55 53 -68 33z"/>
<path d="M14187 13053 c-3 -4 -8 -31 -12 -59 -5 -42 -4 -52 10 -57 19 -8 31
20 37 79 2 30 -1 39 -14 42 -9 2 -18 -1 -21 -5z"/>
<path d="M3467 13013 c-8 -8 -9 -70 -1 -99 4 -14 12 -20 22 -17 14 3 16 15 14
63 -4 56 -15 74 -35 53z"/>
<path d="M21627 12967 c-21 -67 -21 -67 1 -67 24 0 59 100 39 112 -20 13 -23
10 -40 -45z"/>
<path d="M9876 12928 c-8 -23 -26 -93 -26 -100 0 -5 9 -8 20 -8 33 0 54 107
23 118 -7 2 -15 -2 -17 -10z"/>
<path d="M26315 12920 c-9 -15 64 -100 81 -93 21 8 17 20 -18 64 -31 39 -51
48 -63 29z"/>
<path d="M14160 12760 c0 -53 2 -60 20 -60 18 0 20 7 20 60 0 53 -2 60 -20 60
-18 0 -20 -7 -20 -60z"/>
<path d="M21541 12738 c-17 -40 -19 -53 -9 -60 7 -4 16 -8 19 -8 10 0 49 101
43 111 -13 21 -33 5 -53 -43z"/>
<path d="M3476 12771 c-3 -4 -3 -31 1 -60 5 -42 9 -51 26 -51 17 0 19 5 13 38
-3 20 -6 47 -6 60 0 21 -23 31 -34 13z"/>
<path d="M26471 12737 c-8 -10 -4 -22 15 -48 14 -19 29 -41 34 -49 8 -13 11
-13 25 1 14 14 12 19 -20 62 -20 26 -37 47 -39 47 -2 0 -9 -6 -15 -13z"/>
<path d="M9810 12686 c-17 -45 -23 -96 -11 -96 6 0 14 0 18 -1 7 0 33 76 33
97 0 24 -31 24 -40 0z"/>
<path d="M14170 12558 c0 -59 13 -98 31 -98 21 0 23 18 13 83 -5 27 -11 37
-25 37 -13 0 -19 -7 -19 -22z"/>
<path d="M21446 12518 c-19 -44 -21 -54 -9 -61 8 -5 17 -6 20 -3 13 12 51 105
45 110 -16 16 -35 1 -56 -46z"/>
<path d="M26611 12541 c-12 -8 -8 -18 18 -60 21 -32 37 -48 47 -44 20 7 18 20
-13 69 -30 47 -31 48 -52 35z"/>
<path d="M3500 12518 c0 -61 13 -98 32 -98 18 0 19 5 13 53 -8 61 -11 67 -31
67 -8 0 -14 -10 -14 -22z"/>
<path d="M9726 12424 c-15 -47 -15 -58 -5 -65 17 -10 22 -5 44 55 15 40 15 50
4 57 -22 14 -24 12 -43 -47z"/>
<path d="M21365 12350 c-4 -6 -129 -10 -346 -10 l-339 0 0 -477 0 -477 -42
-43 c-35 -36 -39 -44 -28 -58 12 -14 16 -13 42 11 l28 28 0 -1077 0 -1077
1073 0 1073 0 159 -295 c88 -162 162 -295 166 -295 7 0 177 309 284 512 l40
78 1068 0 1067 0 0 1585 0 1585 -2101 0 c-1385 0 -2107 3 -2119 10 -13 7 -21
7 -25 0z m4205 -1595 l0 -1545 -1058 0 -1058 0 -134 -247 c-162 -301 -163
-303 -170 -303 -3 0 -71 123 -151 273 l-146 272 -1067 3 -1066 2 0 1545 0
1545 2425 0 2425 0 0 -1545z"/>
<path d="M20880 10755 l0 -1395 2265 0 2265 0 2 1391 c2 765 1 1393 -1 1395
-2 2 -1023 4 -2268 4 l-2263 0 0 -1395z m4491 1351 c2 -2 3 -612 1 -1355 l-2
-1351 -2225 0 -2225 0 0 1355 0 1355 2223 0 c1223 0 2226 -2 2228 -4z"/>
<path d="M22435 11686 c-9 -75 -44 -568 -51 -731 -6 -147 -20 -288 -23 -240
-6 91 -51 508 -55 513 -10 9 -301 60 -307 53 -3 -3 -22 -71 -43 -151 -33 -129
-186 -574 -194 -565 -2 2 10 90 27 197 17 107 31 202 31 211 0 15 -21 17 -201
17 l-202 0 7 -187 c3 -104 6 -228 7 -278 l2 -90 -166 -51 c-92 -27 -169 -53
-173 -57 -4 -4 68 -7 161 -7 l168 0 48 35 c27 19 54 35 60 35 6 0 39 -16 73
-35 61 -34 66 -35 173 -35 l111 0 22 55 22 55 77 -1 c42 -1 110 -4 151 -8 l75
-6 16 -45 17 -45 189 -3 189 -2 127 90 c69 49 130 90 135 90 6 0 111 -29 234
-64 l224 -63 194 28 c107 16 203 29 212 29 9 0 36 -24 60 -54 l43 -55 655 0
655 -1 68 191 c37 106 66 194 63 196 -2 2 -64 -1 -137 -7 -143 -12 -310 -42
-367 -65 -19 -8 -38 -15 -42 -15 -4 0 -13 32 -20 70 l-13 70 -44 0 -43 0 2
147 3 147 -40 8 c-22 4 -103 11 -180 14 -298 14 -588 -65 -789 -216 -37 -28
-70 -50 -71 -48 -1 2 -26 50 -55 108 -215 429 -575 714 -1002 793 l-77 14 -6
-41z m2118 -839 l-27 -105 -36 -6 c-59 -10 -160 -7 -160 5 0 29 231 231 247
215 2 -2 -8 -51 -24 -109z m614 -368 l-73 -124 -154 -2 -155 -3 35 20 c139 81
416 236 418 235 1 -1 -30 -58 -71 -126z"/>
<path d="M23485 11311 l-58 -118 55 -79 c30 -43 67 -100 82 -125 l27 -47 112
58 c61 31 138 68 170 81 33 13 57 29 57 38 0 28 -191 204 -275 252 -44 25 -87
49 -96 52 -12 4 -29 -23 -74 -112z"/>
<path d="M21107 10263 c-3 -5 1 -38 8 -75 7 -37 10 -70 7 -73 -3 -3 -32 -5
-64 -5 l-58 0 0 -45 0 -45 2128 0 c1170 0 2138 -3 2152 -7 14 -3 22 -2 17 2
-4 5 -50 14 -103 21 -52 7 -97 14 -100 17 -3 2 11 48 31 102 19 53 35 101 35
106 0 11 -4047 12 -4053 2z"/>
<path d="M26741 12340 c-11 -6 -8 -18 14 -59 30 -53 32 -56 53 -43 10 7 7 19
-14 55 -30 54 -35 59 -53 47z"/>
<path d="M3540 12290 c0 -36 24 -110 35 -110 23 0 26 16 13 69 -9 38 -16 51
-30 51 -10 0 -18 -4 -18 -10z"/>
<path d="M9637 12207 c-22 -47 -23 -53 -9 -65 14 -11 19 -6 39 30 26 50 29 74
8 81 -10 4 -21 -10 -38 -46z"/>
<path d="M26859 12129 c-15 -8 -14 -14 8 -59 22 -46 44 -62 57 -41 3 5 -7 31
-22 59 -22 40 -31 48 -43 41z"/>
<path d="M3600 12058 c1 -37 29 -103 44 -103 20 0 21 4 5 65 -9 37 -18 50 -31
50 -10 0 -18 -6 -18 -12z"/>
<path d="M9535 11994 c-25 -43 -28 -74 -6 -74 10 0 61 82 61 98 0 6 -6 12 -14
15 -10 4 -24 -10 -41 -39z"/>
<path d="M26954 11907 c-7 -20 33 -107 50 -107 24 0 24 12 0 68 -23 51 -40 64
-50 39z"/>
<path d="M3688 11838 c-15 -12 -15 -17 7 -65 18 -40 28 -51 40 -47 17 7 15 19
-14 87 -14 33 -18 36 -33 25z"/>
<path d="M9416 11785 c-26 -42 -29 -75 -7 -75 5 0 23 22 39 49 22 36 27 52 19
60 -17 17 -20 15 -51 -34z"/>
<path d="M27050 11690 c-12 -7 -12 -16 3 -64 18 -57 23 -62 45 -48 9 7 9 19
-4 58 -20 59 -25 66 -44 54z"/>
<path d="M3780 11620 c-12 -8 -11 -17 12 -64 20 -40 32 -54 43 -50 8 4 15 10
15 15 0 10 -48 109 -53 109 -1 0 -9 -5 -17 -10z"/>
<path d="M9281 11584 c-29 -41 -31 -48 -19 -61 13 -13 19 -8 51 34 26 35 33
51 25 60 -15 19 -20 16 -57 -33z"/>
<path d="M5546 11607 c-15 -11 -15 -25 -6 -137 34 -438 71 -982 66 -987 -3 -3
-133 26 -288 65 -156 39 -310 76 -344 82 -34 7 -65 15 -71 19 -5 3 -40 93 -79
199 l-69 192 -60 38 c-33 20 -63 39 -67 40 -5 2 -8 -96 -8 -217 l0 -221 -57 0
-58 -1 44 -37 44 -38 -131 -181 c-147 -204 -146 -193 -24 -193 l64 0 161 118
c89 65 167 121 174 125 7 5 63 -16 130 -46 65 -30 213 -89 328 -132 116 -42
212 -79 214 -81 8 -8 -51 -89 -343 -468 -169 -219 -310 -404 -312 -410 -10
-29 14 -39 96 -37 l81 2 140 101 140 100 72 -26 c39 -14 78 -26 85 -26 16 0
44 64 36 84 -3 9 -26 21 -51 28 l-44 13 129 93 c71 50 136 92 144 92 8 0 43
-11 78 -25 35 -14 70 -25 77 -25 8 0 21 16 29 35 20 48 6 71 -46 80 -22 4 -40
10 -40 13 0 4 66 54 145 110 l145 104 133 -36 c210 -57 274 -68 357 -63 85 5
150 28 150 52 0 21 -79 96 -137 131 -27 16 -133 58 -238 94 l-190 65 -62 170
c-34 94 -62 175 -62 182 -1 8 14 6 49 -5 57 -18 73 -10 84 38 9 39 -4 49 -95
73 l-84 22 -53 148 c-30 82 -52 151 -50 153 3 2 23 -4 46 -13 49 -19 67 -10
77 39 10 41 -5 53 -95 75 l-75 19 -57 155 c-53 140 -62 158 -105 197 -63 58
-95 75 -117 59z"/>
<path d="M27123 11462 c-10 -6 -9 -20 4 -65 16 -59 19 -62 40 -49 10 6 9 20
-4 65 -16 59 -19 62 -40 49z"/>
<path d="M9136 11394 c-34 -41 -37 -47 -24 -61 14 -13 20 -9 53 32 33 40 36
48 24 61 -13 12 -20 8 -53 -32z"/>
<path d="M3885 11400 c-6 -9 39 -95 55 -105 4 -3 13 1 19 9 9 11 5 24 -16 60
-27 44 -46 56 -58 36z"/>
<path d="M8976 11215 c-36 -43 -40 -65 -11 -65 7 0 29 19 49 42 27 32 33 44
25 55 -17 20 -24 17 -63 -32z"/>
<path d="M27170 11228 c11 -64 29 -114 43 -116 20 -4 22 24 6 81 -7 26 -15 37
-29 37 -11 0 -20 -1 -20 -2z"/>
<path d="M4015 11200 c-4 -6 8 -34 26 -61 30 -42 36 -47 48 -34 13 13 11 20
-16 57 -33 46 -47 55 -58 38z"/>
<path d="M20468 11175 c-21 -20 -38 -39 -38 -45 0 -24 24 -18 65 16 34 29 42
41 33 51 -15 18 -18 17 -60 -22z"/>
<path d="M8802 11047 c-38 -39 -41 -45 -27 -57 14 -11 22 -8 58 26 23 21 44
40 46 41 5 3 -20 33 -28 33 -4 0 -26 -20 -49 -43z"/>
<path d="M20281 11014 c-38 -33 -41 -39 -28 -52 14 -13 21 -10 61 22 28 23 43
43 39 52 -8 22 -26 17 -72 -22z"/>
<path d="M4161 11006 c-9 -10 -4 -22 21 -54 33 -41 52 -51 63 -32 6 10 -53 99
-66 100 -4 0 -12 -6 -18 -14z"/>
<path d="M27226 10992 c-2 -4 0 -27 4 -52 5 -25 9 -48 10 -52 0 -5 9 -8 21 -8
15 0 19 5 15 18 -2 9 -8 36 -11 60 -6 38 -25 56 -39 34z"/>
<path d="M8623 10894 c-26 -22 -40 -40 -36 -49 8 -22 20 -18 69 21 35 29 42
39 33 50 -16 19 -18 18 -66 -22z"/>
<path d="M20092 10868 c-38 -28 -41 -34 -27 -47 13 -13 19 -11 57 16 24 17 43
37 43 44 0 24 -29 19 -73 -13z"/>
<path d="M8433 10749 c-24 -17 -43 -34 -43 -40 0 -23 33 -18 74 12 36 25 43
35 35 46 -15 17 -17 17 -66 -18z"/>
<path d="M19907 10738 c-49 -32 -52 -35 -39 -55 5 -8 22 -2 58 21 44 27 50 34
40 48 -11 15 -17 14 -59 -14z"/>
<path d="M27260 10731 c0 -58 12 -91 32 -91 16 0 19 5 14 23 -3 12 -6 39 -6
60 0 30 -4 37 -20 37 -15 0 -20 -7 -20 -29z"/>
<path d="M8238 10619 c-50 -33 -53 -36 -40 -56 5 -8 22 -2 60 21 46 28 51 34
40 49 -12 15 -17 14 -60 -14z"/>
<path d="M19698 10613 c-51 -28 -53 -30 -40 -51 7 -10 20 -6 58 14 27 15 50
28 52 29 5 4 -10 35 -17 35 -3 0 -27 -12 -53 -27z"/>
<path d="M19488 10504 c-46 -24 -64 -54 -33 -54 13 0 90 34 103 45 5 4 -10 35
-17 35 -3 -1 -27 -12 -53 -26z"/>
<path d="M8028 10494 c-49 -25 -59 -40 -33 -50 19 -8 100 37 100 55 0 23 -17
22 -67 -5z"/>
<path d="M27280 10476 c0 -58 8 -76 32 -76 14 0 18 5 14 16 -3 9 -6 36 -6 60
0 37 -3 44 -20 44 -17 0 -20 -7 -20 -44z"/>
<path d="M19273 10412 c-51 -21 -57 -27 -50 -47 6 -13 13 -12 59 6 63 25 60
22 52 43 -7 19 -8 19 -61 -2z"/>
<path d="M7818 10387 c-47 -22 -61 -43 -34 -53 11 -4 86 25 104 41 5 4 -10 35
-17 34 -3 0 -27 -11 -53 -22z"/>
<path d="M19033 10323 c-44 -15 -48 -20 -35 -39 5 -8 22 -7 60 4 39 11 52 19
52 33 0 23 -19 23 -77 2z"/>
<path d="M7598 10287 c-45 -19 -60 -39 -39 -51 7 -5 97 27 109 38 5 5 -10 36
-17 35 -3 -1 -27 -10 -53 -22z"/>
<path d="M27290 10220 c0 -53 2 -60 20 -60 18 0 20 7 20 60 0 53 -2 60 -20 60
-18 0 -20 -7 -20 -60z"/>
<path d="M18803 10257 c-40 -9 -55 -28 -34 -41 5 -4 32 -1 60 6 38 9 51 16 51
30 0 20 -13 21 -77 5z"/>
<path d="M7378 10202 c-48 -17 -53 -22 -45 -45 3 -9 18 -7 60 7 32 11 57 20
57 22 0 10 -13 34 -19 33 -3 0 -27 -8 -53 -17z"/>
<path d="M18585 10205 c-33 -7 -51 -17 -53 -28 -3 -12 3 -17 20 -17 41 0 98
20 98 35 0 21 -10 22 -65 10z"/>
<path d="M16860 10192 c0 -23 10 -28 74 -37 42 -7 46 -5 46 13 0 16 -9 21 -46
27 -26 3 -53 9 -60 12 -9 3 -14 -2 -14 -15z"/>
<path d="M17097 10148 c-4 -14 3 -19 32 -23 20 -4 46 -8 57 -11 14 -2 24 2 28
13 9 22 6 23 -57 32 -49 7 -56 5 -60 -11z"/>
<path d="M18328 10163 c-30 -3 -38 -9 -38 -24 0 -21 17 -23 83 -13 27 5 37 11
37 25 0 20 -3 20 -82 12z"/>
<path d="M17334 10126 c-9 -23 -6 -24 59 -32 54 -6 57 -5 57 15 0 15 -6 21
-24 21 -13 0 -37 3 -55 6 -23 5 -32 2 -37 -10z"/>
<path d="M18078 10133 c-20 -3 -28 -10 -28 -25 0 -18 4 -20 31 -14 17 3 44 6
60 6 22 0 29 5 29 20 0 21 -21 24 -92 13z"/>
<path d="M17572 10103 c2 -14 15 -19 61 -21 52 -3 57 -1 57 18 0 18 -6 20 -61
20 -52 0 -60 -2 -57 -17z"/>
<path d="M17812 10103 c3 -15 15 -18 61 -19 50 -2 57 1 57 17 0 17 -8 19 -61
19 -52 0 -60 -2 -57 -17z"/>
<path d="M27290 10026 c0 -7 -3 -34 -6 -60 -6 -41 -5 -46 13 -46 16 0 21 9 27
46 9 68 8 74 -14 74 -11 0 -20 -6 -20 -14z"/>
<path d="M27270 9771 c0 -16 -3 -43 -6 -60 -6 -26 -4 -31 13 -31 16 0 22 9 27
38 11 66 8 82 -14 82 -15 0 -20 -7 -20 -29z"/>
<path d="M27237 9509 c-7 -56 -3 -69 17 -69 8 0 16 16 20 38 10 64 8 82 -13
82 -15 0 -19 -10 -24 -51z"/>
<path d="M27207 9323 c-2 -4 -7 -25 -11 -46 -4 -21 -10 -45 -13 -53 -3 -9 2
-14 16 -14 33 0 55 107 24 117 -6 2 -13 0 -16 -4z"/>
<path d="M27138 9036 c-13 -49 -13 -56 0 -61 21 -8 27 2 41 57 14 60 14 58 -7
58 -14 0 -23 -14 -34 -54z"/>
<path d="M27068 8808 c-12 -39 -13 -55 -5 -60 21 -13 25 -9 41 39 20 60 20 73
-2 73 -13 0 -22 -15 -34 -52z"/>
<path d="M26991 8589 c-21 -52 -20 -69 3 -69 19 0 57 103 42 112 -19 13 -23 9
-45 -43z"/>
<path d="M26899 8370 c-25 -58 -25 -64 -4 -68 10 -2 22 11 35 40 24 52 25 64
5 72 -10 4 -21 -9 -36 -44z"/>
<path d="M26788 8151 c-25 -43 -26 -50 -13 -61 9 -7 17 -11 18 -9 22 29 57
102 52 109 -13 21 -31 8 -57 -39z"/>
<path d="M26667 7944 c-27 -44 -28 -64 -4 -64 16 0 70 87 62 100 -12 20 -31 9
-58 -36z"/>
<path d="M26537 7749 c-27 -39 -30 -69 -8 -69 15 0 73 89 66 100 -12 19 -30 9
-58 -31z"/>
<path d="M26392 7559 c-31 -36 -37 -69 -14 -69 5 0 26 20 45 44 27 32 33 46
24 55 -16 16 -19 15 -55 -30z"/>
<path d="M26236 7381 c-37 -38 -44 -55 -25 -67 12 -7 89 63 89 82 0 27 -30 20
-64 -15z"/>
<path d="M20737 7254 c-43 -14 -59 -29 -158 -147 l-110 -132 -92 0 -92 0 -3
-38 c-4 -49 10 -65 58 -69 l38 -3 -100 -120 -101 -120 -46 2 c-25 1 -63 5 -83
8 -44 6 -68 -13 -68 -54 0 -38 17 -51 67 -51 24 0 43 -3 42 -7 0 -5 -51 -68
-112 -141 l-112 -134 -225 -2 c-209 -2 -229 -4 -285 -25 -73 -29 -127 -67
-123 -88 5 -24 113 -80 187 -97 36 -8 149 -22 250 -31 101 -8 185 -16 186 -17
18 -24 205 -309 205 -314 0 -3 -22 -3 -48 1 -59 8 -75 -6 -70 -62 l3 -38 95
-3 95 -3 85 -125 c47 -69 87 -130 89 -136 2 -8 -11 -9 -42 -5 -51 7 -65 -3
-69 -49 -3 -49 6 -54 100 -54 l87 0 95 -138 c91 -130 99 -139 160 -170 76 -39
114 -39 118 -2 1 14 -76 258 -172 543 l-175 517 248 0 c136 0 301 3 367 6
l119 7 114 -167 c63 -91 119 -170 125 -175 11 -8 133 -51 146 -51 4 0 -19 95
-51 212 -43 155 -55 214 -46 220 6 4 29 10 49 13 55 10 55 21 -3 40 -38 13
-49 21 -44 32 3 9 40 103 82 210 41 106 74 195 72 197 -2 2 -39 -3 -81 -11
l-78 -16 -139 -167 -138 -167 -119 22 c-66 12 -224 33 -352 46 l-234 24 6 34
c3 19 96 245 206 503 111 258 200 476 198 486 -4 23 -58 25 -121 6z"/>
<path d="M26062 7207 c-39 -39 -41 -45 -27 -57 14 -12 22 -8 58 28 37 37 40
43 26 57 -13 13 -19 10 -57 -28z"/>
<path d="M25888 7052 c-39 -32 -44 -41 -33 -55 10 -14 17 -12 60 26 40 36 45
44 33 54 -11 10 -23 5 -60 -25z"/>
<path d="M25697 6903 c-43 -32 -47 -38 -33 -51 13 -13 19 -11 58 19 24 18 45
34 47 36 3 2 -2 10 -10 18 -12 12 -21 9 -62 -22z"/>
<path d="M25497 6767 c-42 -27 -46 -32 -33 -45 14 -14 28 -9 98 39 9 6 0 40
-11 38 -3 0 -28 -15 -54 -32z"/>
<path d="M25293 6644 c-44 -26 -53 -41 -30 -50 21 -8 107 45 100 62 -7 20 -22
18 -70 -12z"/>
<path d="M25088 6536 c-42 -19 -59 -41 -43 -58 6 -6 102 38 109 51 3 5 0 13
-7 18 -8 7 -28 3 -59 -11z"/>
<path d="M24868 6437 c-30 -14 -48 -28 -48 -39 0 -10 5 -18 11 -18 11 0 109
41 109 45 0 11 -13 35 -19 34 -3 0 -27 -11 -53 -22z"/>
<path d="M24643 6348 c-55 -21 -58 -24 -44 -46 6 -10 19 -9 64 8 51 19 56 23
47 41 -6 10 -12 18 -13 18 -1 -1 -26 -10 -54 -21z"/>
<path d="M24428 6271 c-54 -19 -62 -25 -55 -44 5 -12 13 -12 56 3 61 20 65 24
54 43 -7 12 -14 12 -55 -2z"/>
<path d="M24196 6204 c-56 -14 -68 -24 -57 -42 7 -11 18 -10 65 3 56 17 62 21
48 41 -5 8 -21 7 -56 -2z"/>
<path d="M23955 6146 c-33 -8 -51 -18 -53 -29 -4 -20 8 -21 76 -6 42 9 49 13
45 30 -3 10 -8 18 -12 18 -3 -1 -28 -7 -56 -13z"/>
<path d="M23755 6105 c-5 -2 -27 -6 -47 -10 -29 -4 -38 -11 -38 -26 0 -17 5
-20 30 -15 17 3 44 9 61 12 20 4 29 11 27 22 -3 16 -16 23 -33 17z"/>
<path d="M23475 6061 c-27 -4 -41 -12 -43 -23 -3 -14 3 -18 26 -18 58 0 92 12
92 31 0 20 -5 21 -75 10z"/>
<path d="M23233 6033 c-35 -3 -43 -8 -43 -24 0 -14 7 -19 29 -19 57 0 91 12
91 31 0 12 -6 18 -17 17 -10 -1 -37 -3 -60 -5z"/>
<path d="M21990 6000 c0 -18 6 -20 61 -20 52 0 60 2 57 18 -2 13 -15 18 -61
20 -52 3 -57 1 -57 -18z"/>
<path d="M22998 6013 c-40 -3 -48 -8 -48 -24 0 -21 17 -23 83 -13 27 5 37 11
37 25 0 11 -6 18 -12 17 -7 -1 -34 -3 -60 -5z"/>
<path d="M22230 5991 c0 -18 6 -21 44 -21 24 0 51 -3 60 -6 12 -4 16 0 16 15
0 16 -6 21 -29 21 -16 0 -43 3 -60 6 -27 6 -31 4 -31 -15z"/>
<path d="M22470 5980 c0 -18 7 -20 60 -20 53 0 60 2 60 20 0 18 -7 20 -60 20
-53 0 -60 -2 -60 -20z"/>
<path d="M22710 5980 c0 -19 5 -21 57 -18 46 2 59 7 61 21 3 15 -5 17 -57 17
-55 0 -61 -2 -61 -20z"/>
<path d="M24870 1010 c0 -20 7 -20 500 -20 493 0 500 0 500 20 0 20 -7 20
-500 20 -493 0 -500 0 -500 -20z"/>
</g>
</svg>
